<?xml version="1.0" standalone="no"?>
<!DOCTYPE svg PUBLIC "-//W3C//DTD SVG 1.1//EN" "http://www.w3.org/Graphics/SVG/1.1/DTD/svg11.dtd" >
<svg xmlns="http://www.w3.org/2000/svg">
  <metadata>Created by iconfont</metadata>
  <defs>
  <font id="iconfont" horiz-adv-x="1024">
    <font-face
      font-family="iconfont"
      font-weight="400"
      font-stretch="normal"
      units-per-em="1024"
      ascent="896"
      descent="-128"
    />
      <missing-glyph />
      
      <glyph glyph-name="search_blue" unicode="&#58923;" d="M841.142857 18.285714a36.571429 36.571429 0 0 0-25.965714 10.971429l-67.291429 66.925714a36.571429 36.571429 0 0 0 51.931429 51.931429l66.925714-67.291429a36.571429 36.571429 0 0 0 0-51.565714 36.571429 36.571429 0 0 0-25.6-10.971429zM483.84 676.571429A264.411429 264.411429 0 1 0 219.428571 412.16 264.411429 264.411429 0 0 0 483.84 676.571429m0 73.142857a337.554286 337.554286 0 1 1 337.188571-337.554286A337.554286 337.554286 0 0 1 483.84 749.714286z"  horiz-adv-x="1024" />
      
      <glyph glyph-name="close" unicode="&#58922;" d="M537.965714 384L804.571429 650.24a18.285714 18.285714 0 0 1-26.331429 26.331429L512 409.965714 245.76 676.571429a18.285714 18.285714 0 0 1-26.331429-26.331429L486.034286 384 219.428571 117.76A18.651429 18.651429 0 0 1 219.428571 91.428571a18.285714 18.285714 0 0 1 12.8-5.485714 18.651429 18.651429 0 0 1 13.531429 5.485714L512 358.034286 778.24 91.428571a18.651429 18.651429 0 0 1 13.165714-5.485714A18.285714 18.285714 0 0 1 804.571429 91.428571a18.651429 18.651429 0 0 1 0 25.965715z"  horiz-adv-x="1024" />
      
      <glyph glyph-name="date" unicode="&#58921;" d="M691.565714 664.868571h-12.434285V708.388571a21.942857 21.942857 0 1 1-43.885715 0v-43.52h-246.491428V708.388571a21.942857 21.942857 0 1 1-43.885715 0v-43.52h-12.434285a166.765714 166.765714 0 0 1-166.765715-166.765714v-292.571428a166.765714 166.765714 0 0 1 166.765715-166.765715h359.131428a166.765714 166.765714 0 0 1 166.765715 166.765715v292.571428a166.765714 166.765714 0 0 1-166.765715 166.765714z m-359.131428-43.885714h12.434285V533.942857a21.942857 21.942857 0 0 1 43.885715 0V620.982857h246.491428V533.942857a21.942857 21.942857 0 1 1 43.885715 0V620.982857h12.434285a123.245714 123.245714 0 0 0 122.88-122.88v-79.725714H209.554286v79.725714a123.245714 123.245714 0 0 0 122.88 122.88z m359.131428-539.428571H332.434286a123.245714 123.245714 0 0 0-122.88 122.88v170.057143h604.891428v-170.057143a123.245714 123.245714 0 0 0-122.88-122.88z"  horiz-adv-x="1024" />
      
      <glyph glyph-name="edit" unicode="&#58920;" d="M448 298.057143a22.308571 22.308571 0 0 0-15.36 36.571428l343.04 343.04a21.942857 21.942857 0 0 0 31.085714-31.085714l-343.04-343.04a21.942857 21.942857 0 0 0-15.725714-5.485714zM683.885714 37.668571H340.114286a174.811429 174.811429 0 0 0-174.445715 174.445715V555.885714A174.811429 174.811429 0 0 0 340.114286 730.331429h249.417143a21.942857 21.942857 0 0 0 0-43.885715H340.114286A130.56 130.56 0 0 1 209.554286 555.885714v-343.771428a130.56 130.56 0 0 1 130.56-130.56h343.771428a130.56 130.56 0 0 1 130.56 130.56v249.417143a21.942857 21.942857 0 0 0 43.885715 0v-249.417143a174.811429 174.811429 0 0 0-174.445715-174.445715z"  horiz-adv-x="1024" />
      
      <glyph glyph-name="search_white" unicode="&#58919;" d="M841.142857 18.285714a36.571429 36.571429 0 0 0-25.965714 10.971429l-67.291429 66.925714a36.571429 36.571429 0 0 0 51.931429 51.931429l66.925714-67.291429a36.571429 36.571429 0 0 0 0-51.565714 36.571429 36.571429 0 0 0-25.6-10.971429zM483.84 676.571429A264.411429 264.411429 0 1 0 219.428571 412.16 264.411429 264.411429 0 0 0 483.84 676.571429m0 73.142857a337.554286 337.554286 0 1 1 337.188571-337.554286A337.554286 337.554286 0 0 1 483.84 749.714286z"  horiz-adv-x="1024" />
      
      <glyph glyph-name="unable" unicode="&#58918;" d="M602.697143 474.697143m0-42.788572l0-95.817142q0-42.788571-42.788572-42.788572l-95.817142 0q-42.788571 0-42.788572 42.788572l0 95.817142q0 42.788571 42.788572 42.788572l95.817142 0q42.788571 0 42.788572-42.788572ZM512 2.56A381.44 381.44 0 1 0 893.44 384 381.805714 381.805714 0 0 0 512 2.56z m0 718.994286A337.554286 337.554286 0 1 1 849.554286 384 337.92 337.92 0 0 1 512 721.554286z"  horiz-adv-x="1024" />
      
      <glyph glyph-name="stop" unicode="&#58917;" d="M512 765.44A381.44 381.44 0 1 1 893.44 384 381.805714 381.805714 0 0 1 512 765.44z m0-718.994286A337.554286 337.554286 0 1 0 849.554286 384 337.92 337.92 0 0 0 512 46.445714zM648.411429 520.411429a21.577143 21.577143 0 0 1-31.085715 0L512 415.085714l-105.691429 105.325715a21.211429 21.211429 0 0 1-30.72 0 21.577143 21.577143 0 0 1 0-31.085715L480.914286 384l-105.325715-105.325714a21.577143 21.577143 0 0 1 0-31.085715 21.211429 21.211429 0 0 1 30.72 0L512 352.914286l105.325714-105.325715a22.308571 22.308571 0 0 1 15.725715-6.582857 21.211429 21.211429 0 0 1 15.36 6.582857 21.577143 21.577143 0 0 1 0 31.085715L543.085714 384l105.325715 105.325714a21.577143 21.577143 0 0 1 0 31.085715z"  horiz-adv-x="1024" />
      
      <glyph glyph-name="normal_right" unicode="&#58916;" d="M479.085714 272.09142899999995l-109.714285 109.714285a21.942857 21.942857 0 1 0 31.085714 31.085715l80.091428-80.091429 146.285715 146.285714a21.577143 21.577143 0 0 0 31.085714 0 22.308571 22.308571 0 0 0 0-31.085714zM512 4.0228570000000445A380.708571 380.708571 0 0 0 193.828571 593.9200000000001a21.942857 21.942857 0 1 0 36.571429-24.137143 336.822857 336.822857 0 0 1 471.771429-462.628571 21.942857 21.942857 0 0 0 24.868571-36.571429A378.88 378.88 0 0 0 512 4.0228570000000445zM811.885714 164.57142899999997a24.502857 24.502857 0 0 0-12.068571 3.657142 21.942857 21.942857 0 0 0-6.217143 30.354286A336.822857 336.822857 0 0 1 321.828571 660.845714a21.942857 21.942857 0 0 0-24.868571 36.571429A380.342857 380.342857 0 0 0 830.171429 174.08000000000004a22.674286 22.674286 0 0 0-18.285715-9.508571z"  horiz-adv-x="1024" />
      
      <glyph glyph-name="word" unicode="&#58915;" d="M588.068571 435.2l-99.108571-248.685714h41.325714l28.16 70.217143h95.085715l27.794285-70.217143h41.325715l-99.108572 248.685714z m-14.262857-140.068571l32.182857 81.188571 32.182858-81.188571zM750.08 582.948571h-16.091429a149.942857 149.942857 0 0 1-149.577142 146.285715H295.862857A149.942857 149.942857 0 0 1 146.285714 579.657143v-288.548572a150.308571 150.308571 0 0 1 149.942857-149.942857h40.228572a128.365714 128.365714 0 0 1 125.44-102.4h288.548571A128 128 0 0 1 877.714286 164.571429v290.377142a128 128 0 0 1-127.634286 128z m-416.548571-128v-269.897142h-36.571429a106.057143 106.057143 0 0 0-106.057143 106.057142V579.657143a106.057143 106.057143 0 0 0 106.057143 105.691428H585.142857a106.057143 106.057143 0 0 0 105.691429-102.4h-229.302857a128 128 0 0 1-128-128zM834.194286 164.571429a84.114286 84.114286 0 0 0-84.114286-83.748572h-288.548571a84.114286 84.114286 0 0 0-84.114286 83.748572v290.377142a84.114286 84.114286 0 0 0 84.114286 84.114286h288.548571a84.114286 84.114286 0 0 0 84.114286-84.114286z"  horiz-adv-x="1024" />
      
      <glyph glyph-name="word_white" unicode="&#58914;" d="M588.068571 435.2l-99.108571-248.685714h41.325714l28.16 70.217143h95.085715l27.794285-70.217143h41.325715l-99.108572 248.685714z m-14.262857-140.068571l32.182857 81.188571 32.182858-81.188571zM750.08 582.948571h-16.091429a149.942857 149.942857 0 0 1-149.577142 146.285715H295.862857A149.942857 149.942857 0 0 1 146.285714 579.657143v-288.548572a150.308571 150.308571 0 0 1 149.942857-149.942857h40.228572a128.365714 128.365714 0 0 1 125.44-102.4h288.548571A127.634286 127.634286 0 0 1 877.714286 164.571429v290.377142a127.634286 127.634286 0 0 1-127.634286 128z m-416.548571-128v-269.897142h-36.571429a106.057143 106.057143 0 0 0-106.057143 106.057142V579.657143a106.422857 106.422857 0 0 0 106.057143 106.057143H585.142857a106.422857 106.422857 0 0 0 105.691429-102.765715h-229.302857a128 128 0 0 1-128-128zM834.194286 164.571429a84.114286 84.114286 0 0 0-84.114286-83.748572h-288.548571a84.114286 84.114286 0 0 0-84.114286 83.748572v290.377142a84.48 84.48 0 0 0 84.114286 84.114286h288.548571a84.114286 84.114286 0 0 0 84.114286-84.114286z"  horiz-adv-x="1024" />
      
      <glyph glyph-name="set" unicode="&#58913;" d="M179.565714 515.291429l292.571429-152.502858a86.674286 86.674286 0 0 1 77.531428 0l292.571429 152.502858a46.08 46.08 0 0 1 25.234286 41.325714 46.445714 46.445714 0 0 1-25.234286 41.691428L550.765714 749.714286a85.211429 85.211429 0 0 1-77.531428 0l-292.571429-152.137143a46.445714 46.445714 0 0 1-25.234286-41.691429 46.08 46.08 0 0 1 24.137143-40.594285z m20.114286 43.885714l292.571429 152.137143a36.571429 36.571429 0 0 0 36.571428 0l292.571429-152.137143 10.24 19.382857-10.24-24.502857-292.571429-152.137143a40.228571 40.228571 0 0 0-36.571428 0l-292.571429 152.137143zM844.434286 429.714286L804.571429 450.56a21.942857 21.942857 0 1 1-20.114286-39.131429l40.228571-20.845714 10.24 19.382857-10.24-24.502857-292.571428-152.137143a40.228571 40.228571 0 0 0-36.571429 0L199.68 384l-10.24-19.382857 10.24 24.502857 40.228571 20.845714A21.942857 21.942857 0 0 1 219.428571 450.56l-40.228571-20.845714a46.445714 46.445714 0 0 1-25.234286-41.691429 46.08 46.08 0 0 1 25.6-40.594286l292.571429-152.502857a86.674286 86.674286 0 0 1 77.531428 0l292.571429 152.502857a46.08 46.08 0 0 1 25.234286 41.325715 46.445714 46.445714 0 0 1-23.04 40.96zM844.434286 252.708571L804.571429 274.285714a22.308571 22.308571 0 0 1-29.622858-9.508571 21.942857 21.942857 0 0 1 9.508572-29.622857l40.228571-20.845715v-5.12L530.285714 54.857143a36.571429 36.571429 0 0 0-36.571428 0l-292.571429 152.137143v5.12l40.228572 20.845714a21.577143 21.577143 0 0 1 9.142857 29.622857A21.577143 21.577143 0 0 1 219.428571 274.285714l-40.228571-20.845714a46.08 46.08 0 0 1-25.234286-41.325714 46.445714 46.445714 0 0 1 25.234286-41.691429l292.571429-152.137143a83.748571 83.748571 0 0 1 77.531428 0l292.571429 152.137143a46.445714 46.445714 0 0 1 25.234285 41.691429 46.08 46.08 0 0 1-22.674285 40.594285z"  horiz-adv-x="1024" />
      
      <glyph glyph-name="set_white" unicode="&#58912;" d="M179.565714 515.291429l292.571429-152.502858a86.674286 86.674286 0 0 1 77.531428 0l292.571429 152.502858a46.08 46.08 0 0 1 25.234286 41.325714 46.445714 46.445714 0 0 1-25.234286 41.691428L550.765714 749.714286a85.211429 85.211429 0 0 1-77.531428 0l-292.571429-152.137143a46.445714 46.445714 0 0 1-25.234286-41.691429 46.08 46.08 0 0 1 24.137143-40.594285z m20.114286 43.885714l292.571429 152.137143a36.571429 36.571429 0 0 0 36.571428 0l292.571429-152.137143 10.24 19.382857-10.24-24.502857-292.571429-152.137143a40.228571 40.228571 0 0 0-36.571428 0l-292.571429 152.137143zM844.434286 429.714286L804.571429 450.56a21.942857 21.942857 0 1 1-20.114286-39.131429l40.228571-20.845714 10.24 19.382857-10.24-24.502857-292.571428-152.137143a39.131429 39.131429 0 0 0-36.571429 0L199.68 384v5.12l40.228571 20.845714A21.942857 21.942857 0 0 1 219.428571 450.56l-40.228571-20.845714a46.445714 46.445714 0 0 1-25.234286-41.691429 46.08 46.08 0 0 1 25.6-40.594286l292.571429-152.502857a86.674286 86.674286 0 0 1 77.531428 0l292.571429 152.502857a46.08 46.08 0 0 1 25.234286 41.325715 46.445714 46.445714 0 0 1-23.04 40.96zM844.434286 252.708571L804.571429 274.285714a21.942857 21.942857 0 1 1-20.114286-39.131428l40.228571-20.845715v-5.12L530.285714 54.857143a36.571429 36.571429 0 0 0-36.571428 0l-292.571429 152.137143v5.12l40.228572 20.845714a21.577143 21.577143 0 0 1 9.142857 29.622857A21.577143 21.577143 0 0 1 219.428571 274.285714l-40.228571-20.845714a46.08 46.08 0 0 1-25.234286-41.325714 46.445714 46.445714 0 0 1 25.234286-41.691429l292.571429-152.137143a83.748571 83.748571 0 0 1 77.531428 0l292.571429 152.137143a46.445714 46.445714 0 0 1 25.234285 41.691429 46.08 46.08 0 0 1-22.674285 40.594285z"  horiz-adv-x="1024" />
      
      <glyph glyph-name="model" unicode="&#58911;" d="M815.908571 608.182857l-261.851428 151.04a84.114286 84.114286 0 0 1-84.114286 0L208.091429 608.182857a84.845714 84.845714 0 0 1-42.057143-73.142857v-302.08a84.845714 84.845714 0 0 1 42.057143-73.142857l261.851428-151.04a83.748571 83.748571 0 0 1 84.114286 0l261.851428 151.04a84.845714 84.845714 0 0 1 42.057143 73.142857V535.04a84.845714 84.845714 0 0 1-42.057143 73.142857z m0-375.222857a40.96 40.96 0 0 0-20.114285-36.571429l-261.851429-151.04a40.594286 40.594286 0 0 0-40.228571 0l-263.68 152.502858a40.96 40.96 0 0 0-20.114286 36.571428V535.04a40.594286 40.594286 0 0 0 20.114286 36.571429l261.851428 151.04a39.497143 39.497143 0 0 0 40.228572 0l261.851428-151.04a40.594286 40.594286 0 0 0 20.114286-36.571429zM712.045714 530.285714L512 414.354286 311.954286 530.285714a21.942857 21.942857 0 0 1-21.942857-36.571428l200.045714-117.028572v-231.131428a21.942857 21.942857 0 0 1 43.885714 0V376.685714l200.045714 115.2a21.942857 21.942857 0 0 1-21.942857 36.571429z"  horiz-adv-x="1024" />
      
      <glyph glyph-name="model_white" unicode="&#58910;" d="M815.908571 608.182857l-261.851428 151.04a84.114286 84.114286 0 0 1-84.114286 0L208.091429 608.182857a84.845714 84.845714 0 0 1-42.057143-73.142857v-302.08a84.845714 84.845714 0 0 1 42.057143-73.142857l261.851428-151.04a83.748571 83.748571 0 0 1 84.114286 0l261.851428 151.04a84.845714 84.845714 0 0 1 42.057143 73.142857V535.04a84.845714 84.845714 0 0 1-42.057143 73.142857z m0-375.222857a40.96 40.96 0 0 0-20.114285-36.571429l-261.851429-151.04a39.497143 39.497143 0 0 0-40.228571 0l-263.68 152.502858a40.96 40.96 0 0 0-20.114286 36.571428V535.04a40.96 40.96 0 0 0 20.114286 36.571429l261.851428 151.04a39.497143 39.497143 0 0 0 40.228572 0l261.851428-151.04a40.96 40.96 0 0 0 20.114286-36.571429zM712.045714 530.285714L512 414.354286 311.954286 530.285714a21.942857 21.942857 0 0 1-21.942857-36.571428l200.045714-115.565715v-230.765714a21.942857 21.942857 0 0 1 43.885714 0v228.937143l200.045714 115.565714a21.942857 21.942857 0 0 1-21.942857 36.571429z"  horiz-adv-x="1024" />
      
      <glyph glyph-name="explain" unicode="&#58909;" d="M194.194286 587.337143H292.571429a97.645714 97.645714 0 0 1 190.537142 0h345.965715a21.942857 21.942857 0 1 1 0 43.885714h-345.234286a97.645714 97.645714 0 0 1-191.268571 0H194.194286a21.942857 21.942857 0 0 1 0-43.885714z m194.194285 76.068571a54.125714 54.125714 0 1 0-54.125714-54.125714 54.125714 54.125714 0 0 0 54.125714 54.125714zM829.805714 384h-127.268571A97.645714 97.645714 0 0 1 512 384H194.194286a21.942857 21.942857 0 1 1 0-43.885714H512a97.645714 97.645714 0 0 1 190.537143 0h127.268571a21.942857 21.942857 0 0 1 0 43.885714z m-222.72-76.068571a54.125714 54.125714 0 1 0 54.125715 54.125714 54.125714 54.125714 0 0 0-54.125715-54.125714zM829.805714 180.662857H402.285714a97.28 97.28 0 0 1-190.171428 0h-17.92a21.942857 21.942857 0 0 1 0-43.885714h16.457143a97.645714 97.645714 0 0 1 190.537142 0h428.617143a21.942857 21.942857 0 1 1 0 43.885714zM306.102857 104.594286a54.125714 54.125714 0 1 0 54.125714 54.125714 54.125714 54.125714 0 0 0-54.125714-54.125714z"  horiz-adv-x="1024" />
      
      <glyph glyph-name="explain_white" unicode="&#58908;" d="M829.805714 384h-127.268571A97.645714 97.645714 0 0 1 512 384H194.194286a21.942857 21.942857 0 1 1 0-43.885714H512a97.645714 97.645714 0 0 1 190.537143 0h127.268571a21.942857 21.942857 0 0 1 0 43.885714z m-222.72-76.068571a54.125714 54.125714 0 1 0 54.125715 54.125714 54.125714 54.125714 0 0 0-54.125715-54.125714zM194.194286 587.337143H292.571429a97.645714 97.645714 0 0 1 190.537142 0h345.965715a21.942857 21.942857 0 1 1 0 43.885714h-345.234286a97.645714 97.645714 0 0 1-191.268571 0H194.194286a21.942857 21.942857 0 0 1 0-43.885714z m194.194285 76.068571a54.125714 54.125714 0 1 0 0-109.714285 54.125714 54.125714 0 1 0 0 109.714285zM829.805714 180.662857H402.285714a97.28 97.28 0 0 1-190.171428 0h-17.92a21.942857 21.942857 0 0 1 0-43.885714h16.457143a97.645714 97.645714 0 0 1 190.537142 0h428.617143a21.942857 21.942857 0 1 1 0 43.885714zM306.102857 104.594286a54.125714 54.125714 0 1 0 54.125714 54.125714 54.125714 54.125714 0 0 0-54.125714-54.125714z"  horiz-adv-x="1024" />
      
      <glyph glyph-name="data_white" unicode="&#58907;" d="M856.868571 405.942857H533.942857V728.868571A21.942857 21.942857 0 0 1 512 749.714286h-10.24A365.714286 365.714286 0 1 1 877.714286 384a21.942857 21.942857 0 0 1-20.845715 21.942857zM512 61.074286a322.925714 322.925714 0 0 0-21.942857 645.12V384a21.942857 21.942857 0 0 1 21.942857-21.942857h322.194286A323.657143 323.657143 0 0 0 512 61.074286zM607.817143 692.297143a321.462857 321.462857 0 0 0 214.674286-219.428572 21.577143 21.577143 0 0 1 20.845714-15.725714 18.285714 18.285714 0 0 1 6.217143 0 21.942857 21.942857 0 0 1 14.994285 27.062857A365.714286 365.714286 0 0 1 621.714286 733.988571a21.577143 21.577143 0 0 1-27.428572-14.262857 21.942857 21.942857 0 0 1 13.531429-27.428571z"  horiz-adv-x="1024" />
      
      <glyph glyph-name="deta" unicode="&#58906;" d="M856.868571 405.942857H533.942857V728.868571A21.942857 21.942857 0 0 1 512 749.714286h-10.24A365.714286 365.714286 0 1 1 877.714286 384a21.942857 21.942857 0 0 1-20.845715 21.942857zM512 61.074286a322.925714 322.925714 0 0 0-21.942857 645.12V384a21.942857 21.942857 0 0 1 21.942857-21.942857h322.194286A323.657143 323.657143 0 0 0 512 61.074286zM607.817143 692.297143a322.194286 322.194286 0 0 0 214.674286-219.428572 21.577143 21.577143 0 0 1 20.845714-15.725714 18.285714 18.285714 0 0 1 6.217143 0 21.942857 21.942857 0 0 1 14.994285 27.062857A365.714286 365.714286 0 0 1 621.714286 733.988571a21.577143 21.577143 0 0 1-27.428572-14.262857 21.942857 21.942857 0 0 1 13.531429-27.428571z"  horiz-adv-x="1024" />
      
      <glyph glyph-name="ability" unicode="&#58905;" d="M841.142857 574.537143c-20.845714 36.571429-67.291429 53.76-128 53.76a405.211429 405.211429 0 0 1-64-5.485714C617.325714 709.485714 567.588571 765.074286 512 765.074286s-105.325714-55.588571-137.508571-142.262857a413.257143 413.257143 0 0 1-64.365715 5.485714c-60.708571 0-107.154286-17.554286-128-53.76-27.794286-48.274286-4.388571-119.222857 54.491429-190.537143-58.88-73.142857-82.285714-142.262857-53.76-190.537143 20.845714-36.571429 67.291429-53.76 128-53.76a413.257143 413.257143 0 0 1 64.365714 5.485714c32.182857-86.674286 81.92-142.262857 137.508572-142.262857s105.325714 55.588571 137.874285 142.262857a405.211429 405.211429 0 0 1 64-5.485714c60.708571 0 107.154286 17.554286 128 53.76 27.794286 48.274286 4.388571 119.222857-54.491428 190.537143 58.148571 71.314286 81.554286 142.262857 53.028571 190.537143z m-128 9.874286c45.714286 0 78.262857-11.702857 89.965714-31.817143s2.194286-68.388571-31.817142-117.028572c-4.388571-6.217143-9.508571-12.434286-14.262858-18.651428a676.937143 676.937143 0 0 1-75.337142 65.462857 632.685714 632.685714 0 0 1-19.017143 97.645714 310.491429 310.491429 0 0 0 51.2 4.388572z m-135.314286-315.611429c-21.942857-12.434286-44.251429-23.771429-66.56-34.011429-22.308571 10.24-44.617143 21.577143-66.56 34.011429S402.285714 295.497143 382.537143 310.857143q-3.291429 36.571429-3.291429 73.142857t3.291429 73.142857c19.748571 13.897143 40.96 27.794286 62.902857 40.594286s44.251429 23.771429 66.56 34.011428c22.308571-10.24 44.617143-21.577143 66.56-34.011428s43.154286-25.234286 62.902857-40.594286q3.291429-36.571429 3.291429-73.142857t-3.291429-73.142857c-19.748571-15.36-40.96-29.257143-62.902857-42.057143z m54.491429-17.92a521.874286 521.874286 0 0 0-10.605714-54.491429c-17.554286 4.388571-36.571429 10.24-53.394286 16.457143l33.28 17.92c9.874286 6.948571 20.114286 13.165714 31.451429 20.114286z m-176.274286-36.571429c-17.92-6.217143-36.571429-12.068571-53.394285-16.457142a521.874286 521.874286 0 0 0-12.434286 54.491428c10.605714-6.948571 21.577143-13.531429 32.548571-20.114286z m-120.685714 132.754286c-14.628571 12.434286-28.16 25.6-40.594286 38.4A512 512 0 0 0 336.091429 420.571429v-38.4c0-12.8-0.365714-23.771429 0-36.571429z m54.857143 171.52A521.874286 521.874286 0 0 0 402.285714 571.611429c17.554286-4.388571 36.571429-10.24 53.394286-16.457143l-33.28-17.92c-9.874286-6.948571-20.114286-13.165714-31.451429-20.114286z m176.274286 36.571429c17.92 6.217143 36.571429 12.068571 53.394285 16.457143a521.874286 521.874286 0 0 0 12.434286-54.491429c-10.605714 6.948571-21.577143 13.531429-32.548571 20.114286zM687.908571 420.571429a512 512 0 0 0 40.594286-36.571429c-12.434286-12.8-25.965714-25.965714-40.594286-38.4V384c0 12.8 0.731429 25.6 0 36.571429zM512 721.188571c30.354286 0 67.291429-38.765714 94.354286-109.714285a686.08 686.08 0 0 1-94.354286-30.354286 686.08 686.08 0 0 1-94.354286 32.182857c27.062857 69.12 64 107.885714 94.354286 107.885714z m-260.022857-285.622857C219.428571 484.205714 205.897143 528.091429 219.428571 552.594286s44.251429 31.817143 89.965715 31.817143a310.491429 310.491429 0 0 0 50.468571-4.388572 632.685714 632.685714 0 0 1-19.017143-97.645714 676.937143 676.937143 0 0 1-74.605714-65.462857c-4.754286 6.217143-10.24 12.434286-14.262857 18.651428z m58.148571-251.977143c-45.714286 0-78.262857 11.702857-89.965714 31.817143s-2.194286 68.388571 31.817143 117.028572c4.388571 6.217143 9.508571 12.434286 14.262857 18.651428a676.937143 676.937143 0 0 1 75.337143-65.462857 632.685714 632.685714 0 0 1 19.017143-97.645714 310.491429 310.491429 0 0 0-50.468572-4.388572zM512 46.811429c-30.354286 0-67.291429 38.765714-94.354286 107.885714a686.08 686.08 0 0 1 94.354286 32.182857 686.08 686.08 0 0 1 94.354286-32.182857c-27.062857-69.12-64-107.885714-94.354286-107.885714z m260.022857 285.622857c34.011429-48.64 46.08-92.525714 31.817143-117.028572s-44.251429-31.817143-89.965714-31.817143a310.491429 310.491429 0 0 0-50.468572 4.388572 632.685714 632.685714 0 0 1 19.017143 97.645714 676.937143 676.937143 0 0 1 75.337143 65.462857c4.754286-6.217143 10.24-12.434286 14.262857-18.651428z"  horiz-adv-x="1024" />
      
      <glyph glyph-name="ability_white" unicode="&#58904;" d="M841.142857 574.537143c-20.845714 36.571429-67.291429 53.76-128 53.76a405.211429 405.211429 0 0 1-64-5.485714C617.325714 709.485714 567.588571 765.074286 512 765.074286s-105.325714-55.588571-137.874286-142.262857a405.211429 405.211429 0 0 1-64 5.485714c-60.708571 0-107.154286-17.554286-128-53.76-27.794286-48.274286-4.388571-119.222857 54.491429-190.537143-58.88-73.142857-82.285714-142.262857-53.76-190.537143 20.845714-36.571429 67.291429-53.76 128-53.76a405.211429 405.211429 0 0 1 64 5.485714c32.548571-86.674286 82.285714-142.262857 137.874286-142.262857s105.325714 55.588571 137.874285 142.262857a405.211429 405.211429 0 0 1 64-5.485714c60.708571 0 107.154286 17.554286 128 53.76 27.794286 48.274286 4.388571 119.222857-54.491428 190.537143 58.148571 71.314286 81.554286 142.262857 53.028571 190.537143z m-128 9.874286c45.714286 0 78.262857-11.702857 89.965714-31.817143 15.36-26.331429 0-77.531429-46.08-135.68a676.937143 676.937143 0 0 1-75.337142 65.462857 632.685714 632.685714 0 0 1-19.017143 97.645714 310.491429 310.491429 0 0 0 51.2 4.388572z m-135.314286-315.611429c-21.942857-12.434286-44.251429-23.771429-66.56-34.011429-22.308571 10.24-44.617143 21.577143-66.56 34.011429S402.285714 295.131429 382.537143 310.857143q-3.291429 36.571429-3.291429 73.142857t3.291429 73.142857c19.748571 14.262857 40.96 27.794286 62.902857 40.594286s44.251429 23.771429 66.56 34.011428c22.308571-10.24 44.617143-21.577143 66.56-34.011428s43.154286-25.234286 62.902857-40.594286q3.291429-36.571429 3.291429-73.142857t-3.291429-73.142857c-19.748571-15.36-40.228571-28.891429-62.902857-42.057143z m54.491429-17.92a521.874286 521.874286 0 0 0-10.605714-54.491429c-17.554286 4.388571-36.571429 10.24-53.394286 16.457143l33.28 17.92c9.874286 6.948571 20.114286 13.165714 31.451429 20.114286z m-176.274286-36.571429c-17.92-6.217143-36.571429-12.068571-53.394285-16.457142a521.874286 521.874286 0 0 0-12.434286 54.491428c10.605714-6.948571 21.577143-13.531429 32.548571-20.114286z m-120.685714 132.754286c-14.628571 12.434286-28.16 25.6-40.594286 38.4A512 512 0 0 0 336.091429 420.571429v-38.4c0-12.8-0.365714-23.771429 0-36.571429z m54.857143 171.52A521.874286 521.874286 0 0 0 402.285714 571.611429c17.554286-4.388571 36.571429-10.24 53.394286-16.457143l-33.28-17.92c-9.874286-6.948571-20.114286-13.165714-31.451429-20.114286z m176.274286 36.571429c17.92 6.217143 36.571429 12.068571 53.394285 16.457143a521.874286 521.874286 0 0 0 12.434286-54.491429c-10.605714 6.948571-21.577143 13.531429-32.548571 20.114286zM687.908571 420.571429c14.994286-12.8 28.525714-25.6 40.96-38.4-12.434286-12.8-25.965714-25.6-40.96-38.4v38.4c0 12.8 0.365714 27.794286 0 38.4zM512 721.188571c30.354286 0 67.291429-38.765714 94.354286-109.714285a686.08 686.08 0 0 1-94.354286-30.354286 686.08 686.08 0 0 1-94.354286 32.182857c27.062857 69.12 64 107.885714 94.354286 107.885714z m-260.022857-285.622857C219.428571 484.205714 205.897143 528.091429 219.428571 552.594286s44.251429 31.817143 89.965715 31.817143a310.491429 310.491429 0 0 0 50.468571-4.388572 632.685714 632.685714 0 0 1-19.017143-97.645714 676.937143 676.937143 0 0 1-74.605714-65.462857c-4.754286 6.217143-10.24 12.434286-14.262857 18.651428z m58.148571-251.977143c-45.714286 0-78.262857 11.702857-89.965714 31.817143s-2.194286 68.388571 31.817143 117.028572c4.388571 6.217143 9.508571 12.434286 14.262857 18.651428a676.937143 676.937143 0 0 1 75.337143-65.462857 632.685714 632.685714 0 0 1 19.017143-97.645714 310.491429 310.491429 0 0 0-50.468572-4.388572zM512 46.811429c-30.354286 0-67.291429 38.765714-94.354286 107.885714a686.08 686.08 0 0 1 94.354286 32.182857 686.08 686.08 0 0 1 94.354286-32.182857c-27.062857-69.12-64-107.885714-94.354286-107.885714z m292.571429 168.594285c-11.702857-20.114286-44.251429-31.817143-89.965715-31.817143a310.491429 310.491429 0 0 0-50.468571 4.388572 632.685714 632.685714 0 0 1 19.017143 97.645714 642.925714 642.925714 0 0 1 75.337143 65.828572c46.08-58.514286 60.708571-109.714286 46.08-136.045715z"  horiz-adv-x="1024" />
      
      <glyph glyph-name="application_white" unicode="&#58903;" d="M412.891429 676.571429a29.257143 29.257143 0 0 0 29.257142-29.257143v-164.937143a29.257143 29.257143 0 0 0-29.257142-29.257143H247.954286a29.257143 29.257143 0 0 0-29.257143 29.257143V648.045714a29.257143 29.257143 0 0 0 29.257143 29.257143h164.937143m0 43.885714H247.954286a73.142857 73.142857 0 0 1-73.142857-73.142857v-164.937143a73.142857 73.142857 0 0 1 73.142857-73.142857h164.937143a73.142857 73.142857 0 0 1 73.142857 73.142857V648.045714a73.142857 73.142857 0 0 1-73.142857 73.142857zM694.857143 676.571429a111.908571 111.908571 0 1 0-113.005714-109.714286A111.908571 111.908571 0 0 0 694.857143 676.571429m0 43.885714A155.428571 155.428571 0 0 1 537.965714 566.857143a155.794286 155.794286 0 0 1 311.222857 0A155.794286 155.794286 0 0 1 694.857143 721.188571zM412.891429 314.148571a29.257143 29.257143 0 0 0 29.257142-29.257142v-164.937143a29.257143 29.257143 0 0 0-29.257142-29.257143H247.954286a29.257143 29.257143 0 0 0-29.257143 29.257143v164.937143a29.257143 29.257143 0 0 0 29.257143 29.257142h164.937143m0 43.885715H247.954286a73.142857 73.142857 0 0 1-73.142857-73.142857v-164.937143a73.142857 73.142857 0 0 1 73.142857-73.142857h164.937143a73.142857 73.142857 0 0 1 73.142857 73.142857v164.937143a73.142857 73.142857 0 0 1-73.142857 73.142857zM776.045714 314.148571a29.257143 29.257143 0 0 0 29.257143-29.257142v-164.937143a29.257143 29.257143 0 0 0-29.257143-29.257143h-164.937143a29.257143 29.257143 0 0 0-29.257142 29.257143v164.937143a29.257143 29.257143 0 0 0 29.257142 29.257142h164.937143m0 43.885715h-164.937143a73.142857 73.142857 0 0 1-73.142857-73.142857v-164.937143a73.142857 73.142857 0 0 1 73.142857-73.142857h164.937143a73.142857 73.142857 0 0 1 73.142857 73.142857v164.937143a73.142857 73.142857 0 0 1-73.142857 73.142857z"  horiz-adv-x="1024" />
      
      <glyph glyph-name="application" unicode="&#58902;" d="M412.891429 676.571429a29.257143 29.257143 0 0 0 29.257142-29.257143v-164.937143a29.257143 29.257143 0 0 0-29.257142-29.257143H247.954286a29.257143 29.257143 0 0 0-29.257143 29.257143V648.045714a29.257143 29.257143 0 0 0 29.257143 29.257143h164.937143m0 43.885714H247.954286a73.142857 73.142857 0 0 1-73.142857-73.142857v-164.937143a73.142857 73.142857 0 0 1 73.142857-73.142857h164.937143a73.142857 73.142857 0 0 1 73.142857 73.142857V648.045714a73.142857 73.142857 0 0 1-73.142857 73.142857zM694.857143 676.571429a111.908571 111.908571 0 1 0-113.005714-109.714286A111.908571 111.908571 0 0 0 694.857143 676.571429m0 43.885714A155.794286 155.794286 0 1 1 849.188571 566.857143 155.428571 155.428571 0 0 1 694.857143 721.188571zM412.891429 314.148571a29.257143 29.257143 0 0 0 29.257142-29.257142v-164.937143a29.257143 29.257143 0 0 0-29.257142-29.257143H247.954286a29.257143 29.257143 0 0 0-29.257143 29.257143v164.937143a29.257143 29.257143 0 0 0 29.257143 29.257142h164.937143m0 43.885715H247.954286a73.142857 73.142857 0 0 1-73.142857-73.142857v-164.937143a73.142857 73.142857 0 0 1 73.142857-73.142857h164.937143a73.142857 73.142857 0 0 1 73.142857 73.142857v164.937143a73.142857 73.142857 0 0 1-73.142857 73.142857zM776.045714 314.148571a29.257143 29.257143 0 0 0 29.257143-29.257142v-164.937143a29.257143 29.257143 0 0 0-29.257143-29.257143h-164.937143a29.257143 29.257143 0 0 0-29.257142 29.257143v164.937143a29.257143 29.257143 0 0 0 29.257142 29.257142h164.937143m0 43.885715h-164.937143a73.142857 73.142857 0 0 1-73.142857-73.142857v-164.937143a73.142857 73.142857 0 0 1 73.142857-73.142857h164.937143a73.142857 73.142857 0 0 1 73.142857 73.142857v164.937143a73.142857 73.142857 0 0 1-73.142857 73.142857z"  horiz-adv-x="1024" />
      
    </font>
</defs>
</svg>
