<?xml version="1.0" encoding="utf-8"?>
<!-- Generator: Adobe Illustrator 23.0.1, SVG Export Plug-In . SVG Version: 6.00 Build 0)  -->
<svg version="1.1" id="图层_1" xmlns="http://www.w3.org/2000/svg" xmlns:xlink="http://www.w3.org/1999/xlink" x="0px" y="0px"
	 viewBox="0 0 90 90" style="enable-background:new 0 0 90 90;" xml:space="preserve">
<style type="text/css">
	.st0{fill:#FFDCDC;}
	.st1{fill:none;stroke:#000000;stroke-width:5;stroke-miterlimit:10;}
	.st2{fill:none;stroke:#000000;stroke-width:5;stroke-linejoin:bevel;stroke-miterlimit:10;}
	.st3{enable-background:new    ;}
	.st4{clip-path:url(#SVGID_2_);enable-background:new    ;}
	.st5{fill:#948080;}
	.st6{fill:#8F7B7B;}
	.st7{fill:#8A7777;}
	.st8{fill:#857272;}
	.st9{clip-path:url(#SVGID_4_);enable-background:new    ;}
	.st10{fill:#998484;}
	.st11{clip-path:url(#SVGID_6_);enable-background:new    ;}
	.st12{clip-path:url(#SVGID_8_);enable-background:new    ;}
	.st13{fill:#E6C6C6;}
	.st14{fill:none;stroke:#000000;stroke-width:4;stroke-linecap:round;stroke-miterlimit:10;}
	.st15{fill:#F6F6F6;}
	.st16{fill:none;stroke:#9597A0;stroke-width:2;stroke-linecap:round;stroke-miterlimit:10;}
	.st17{fill:none;stroke:#565863;stroke-linejoin:round;stroke-miterlimit:10;}
	.st18{fill:none;stroke:#070B2D;stroke-linecap:round;stroke-miterlimit:10;}
	.st19{fill:none;stroke:#9597A0;stroke-linecap:round;stroke-miterlimit:10;}
	.st20{fill:#565863;}
	.st21{fill:#9597A0;}
	.st22{fill:#070B2D;}
	.st23{fill:url(#SVGID_9_);}
	.st24{fill:url(#SVGID_10_);}
	.st25{fill:url(#SVGID_11_);}
	.st26{fill:url(#SVGID_12_);}
	.st27{fill:url(#SVGID_13_);}
	.st28{fill:url(#SVGID_14_);}
	.st29{fill:#6C93FF;}
	.st30{fill:url(#SVGID_15_);}
	.st31{fill:url(#SVGID_16_);}
	.st32{fill:url(#SVGID_17_);}
	.st33{fill:url(#SVGID_18_);}
	.st34{fill:url(#SVGID_19_);}
	.st35{fill:#C7CAD3;}
	.st36{fill:none;stroke:#565863;stroke-miterlimit:10;}
	.st37{fill:none;stroke:#070B2D;stroke-miterlimit:10;}
	.st38{fill:#C1CEE5;}
	.st39{fill:url(#SVGID_20_);}
	.st40{fill:url(#SVGID_21_);}
	.st41{fill:url(#SVGID_22_);}
	.st42{fill:url(#SVGID_23_);}
	.st43{fill:url(#SVGID_24_);}
	.st44{fill:url(#SVGID_25_);}
	.st45{fill:url(#SVGID_26_);}
	.st46{fill:url(#SVGID_27_);}
	.st47{fill:url(#SVGID_28_);}
	.st48{fill:url(#SVGID_29_);}
	.st49{fill:url(#SVGID_30_);}
	.st50{fill:url(#SVGID_31_);}
	.st51{fill:url(#SVGID_32_);}
	.st52{fill:#ED722D;}
	.st53{fill:none;stroke:#070B2D;stroke-width:1.05;stroke-linecap:round;stroke-miterlimit:10;}
	.st54{fill:url(#SVGID_33_);}
	.st55{fill:url(#SVGID_34_);}
	.st56{fill:url(#SVGID_35_);}
	.st57{fill:url(#SVGID_36_);}
	.st58{fill:url(#SVGID_37_);}
	.st59{fill:url(#SVGID_38_);}
	.st60{fill:url(#SVGID_39_);}
	.st61{fill:url(#SVGID_40_);}
	.st62{fill:#FF8080;}
	.st63{fill:url(#SVGID_41_);}
	.st64{fill:url(#SVGID_42_);}
	.st65{fill:url(#SVGID_43_);}
	.st66{fill:url(#SVGID_44_);}
	.st67{fill:none;stroke:#070B2D;stroke-width:2.0907;stroke-miterlimit:10;}
	.st68{fill:none;stroke:#070B2D;stroke-width:2;stroke-miterlimit:10;}
	.st69{fill:none;stroke:#070B2D;stroke-width:1.6161;stroke-miterlimit:10;}
	.st70{fill:none;stroke:#070B2D;stroke-width:2;stroke-linejoin:round;stroke-miterlimit:10;}
	.st71{fill:none;stroke:#070B2D;stroke-width:2.4305;stroke-miterlimit:10;}
	.st72{fill:none;stroke:#070B2D;stroke-width:2.2387;stroke-miterlimit:10;}
	.st73{fill:none;stroke:#070B2D;stroke-width:1.4671;stroke-miterlimit:10;}
	.st74{fill:none;stroke:#070B2D;stroke-width:2;stroke-linecap:round;stroke-miterlimit:10;}
	.st75{fill:url(#SVGID_45_);}
	.st76{fill:url(#SVGID_46_);}
	.st77{fill:url(#SVGID_47_);}
	.st78{fill:url(#SVGID_48_);}
	.st79{fill:url(#SVGID_49_);}
	.st80{fill:url(#SVGID_50_);}
	.st81{fill:url(#SVGID_51_);}
	.st82{fill:url(#SVGID_52_);}
	.st83{fill:#FFEF5C;}
	.st84{fill:#69FFC5;}
	.st85{fill:#FFFFFF;}
	.st86{fill:#FFEA55;}
	.st87{fill:none;stroke:#FFFFFF;stroke-width:2;stroke-miterlimit:10;}
	.st88{fill:url(#SVGID_53_);}
	.st89{clip-path:url(#SVGID_59_);fill:#FFDA8D;}
	.st90{clip-path:url(#SVGID_59_);fill:#FFDA8E;}
	.st91{clip-path:url(#SVGID_59_);fill:#FFDB8F;}
	.st92{clip-path:url(#SVGID_59_);fill:#FFDB90;}
	.st93{clip-path:url(#SVGID_59_);fill:#FFDC91;}
	.st94{clip-path:url(#SVGID_59_);fill:#FFDC92;}
	.st95{clip-path:url(#SVGID_59_);fill:#FFDD93;}
	.st96{clip-path:url(#SVGID_59_);fill:#FFDD94;}
	.st97{clip-path:url(#SVGID_59_);fill:#FFDE95;}
	.st98{clip-path:url(#SVGID_59_);fill:#FFDE96;}
	.st99{clip-path:url(#SVGID_59_);fill:#FFDF97;}
	.st100{clip-path:url(#SVGID_59_);fill:#FFDF99;}
	.st101{clip-path:url(#SVGID_59_);fill:#FFE09A;}
	.st102{clip-path:url(#SVGID_59_);fill:#FFE09B;}
	.st103{clip-path:url(#SVGID_59_);fill:#FFE19C;}
	.st104{clip-path:url(#SVGID_59_);fill:#FFE19D;}
	.st105{clip-path:url(#SVGID_59_);fill:#FFE29E;}
	.st106{clip-path:url(#SVGID_59_);fill:#FFE29F;}
	.st107{clip-path:url(#SVGID_59_);fill:#FFE3A0;}
	.st108{clip-path:url(#SVGID_59_);fill:#FFE3A1;}
	.st109{clip-path:url(#SVGID_59_);fill:#FFE4A2;}
	.st110{clip-path:url(#SVGID_59_);fill:#FFE4A3;}
	.st111{clip-path:url(#SVGID_59_);fill:#FFE5A4;}
	.st112{clip-path:url(#SVGID_59_);fill:#FFE5A5;}
	.st113{clip-path:url(#SVGID_59_);fill:#FFE6A6;}
	.st114{clip-path:url(#SVGID_59_);fill:#FFE6A7;}
	.st115{clip-path:url(#SVGID_59_);fill:#FFE7A8;}
	.st116{clip-path:url(#SVGID_59_);fill:#FFE7A9;}
	.st117{clip-path:url(#SVGID_59_);fill:#FFE8AA;}
	.st118{clip-path:url(#SVGID_59_);fill:#FFE8AB;}
	.st119{clip-path:url(#SVGID_59_);fill:#FFE9AC;}
	.st120{clip-path:url(#SVGID_59_);fill:#FFE9AD;}
	.st121{clip-path:url(#SVGID_59_);fill:#FFEAAE;}
	.st122{clip-path:url(#SVGID_59_);fill:#FFEAAF;}
	.st123{clip-path:url(#SVGID_59_);fill:#FFEBB0;}
	.st124{clip-path:url(#SVGID_59_);fill:#FFEBB1;}
	.st125{clip-path:url(#SVGID_59_);fill:#FFECB2;}
	.st126{clip-path:url(#SVGID_59_);fill:#FFECB3;}
	.st127{clip-path:url(#SVGID_59_);fill:#FEEDB4;}
	.st128{clip-path:url(#SVGID_59_);fill:#FEEDB5;}
	.st129{clip-path:url(#SVGID_59_);fill:#FEEEB7;}
	.st130{clip-path:url(#SVGID_59_);fill:#FEEEB8;}
	.st131{clip-path:url(#SVGID_59_);fill:#FEEFB9;}
	.st132{clip-path:url(#SVGID_59_);fill:#FEEFBA;}
	.st133{clip-path:url(#SVGID_59_);fill:#FEF0BB;}
	.st134{clip-path:url(#SVGID_59_);fill:#FEF0BC;}
	.st135{clip-path:url(#SVGID_59_);fill:#FEF1BD;}
	.st136{clip-path:url(#SVGID_59_);fill:#FEF1BE;}
	.st137{clip-path:url(#SVGID_59_);fill:#FEF2BF;}
	.st138{clip-path:url(#SVGID_59_);fill:#FEF2C0;}
	.st139{clip-path:url(#SVGID_59_);fill:#FEF3C1;}
	.st140{clip-path:url(#SVGID_59_);fill:#FEF3C2;}
	.st141{clip-path:url(#SVGID_59_);fill:#FEF3C3;}
	.st142{clip-path:url(#SVGID_59_);fill:#FEF4C4;}
	.st143{clip-path:url(#SVGID_59_);fill:#FEF4C5;}
	.st144{clip-path:url(#SVGID_59_);fill:#FEF5C6;}
	.st145{clip-path:url(#SVGID_59_);fill:#FEF5C7;}
	.st146{clip-path:url(#SVGID_59_);fill:#FEF6C8;}
	.st147{clip-path:url(#SVGID_59_);fill:#FEF6C9;}
	.st148{clip-path:url(#SVGID_59_);fill:#FEF7CA;}
	.st149{clip-path:url(#SVGID_59_);fill:#FEF7CB;}
	.st150{clip-path:url(#SVGID_59_);fill:#FEF8CC;}
	.st151{clip-path:url(#SVGID_59_);fill:#FEF8CD;}
	.st152{clip-path:url(#SVGID_59_);fill:#FEF9CE;}
	.st153{clip-path:url(#SVGID_59_);fill:#FEF9CF;}
	.st154{clip-path:url(#SVGID_59_);fill:#FEFAD0;}
	.st155{clip-path:url(#SVGID_59_);fill:#FEFAD1;}
	.st156{clip-path:url(#SVGID_59_);fill:#FEFBD2;}
	.st157{clip-path:url(#SVGID_59_);fill:#FEFBD3;}
	.st158{clip-path:url(#SVGID_59_);fill:#FEFBD4;}
	.st159{clip-path:url(#SVGID_59_);fill:#FEFCD5;}
	.st160{clip-path:url(#SVGID_59_);fill:#FEFDD6;}
	.st161{clip-path:url(#SVGID_59_);fill:#FEFDD7;}
	.st162{clip-path:url(#SVGID_59_);fill:#FEFED8;}
	.st163{clip-path:url(#SVGID_59_);fill:#FEFED9;}
	.st164{clip-path:url(#SVGID_59_);fill:#FEFFDA;}
	.st165{clip-path:url(#SVGID_59_);fill:#FEFFDB;}
	.st166{clip-path:url(#SVGID_61_);fill:#FFDA8D;}
	.st167{clip-path:url(#SVGID_61_);fill:#FFDA8E;}
	.st168{clip-path:url(#SVGID_61_);fill:#FFDB8F;}
	.st169{clip-path:url(#SVGID_61_);fill:#FFDB90;}
	.st170{clip-path:url(#SVGID_61_);fill:#FFDC91;}
	.st171{clip-path:url(#SVGID_61_);fill:#FFDC92;}
	.st172{clip-path:url(#SVGID_61_);fill:#FFDD93;}
	.st173{clip-path:url(#SVGID_61_);fill:#FFDD94;}
	.st174{clip-path:url(#SVGID_61_);fill:#FFDE95;}
	.st175{clip-path:url(#SVGID_61_);fill:#FFDE96;}
	.st176{clip-path:url(#SVGID_61_);fill:#FFDF97;}
	.st177{clip-path:url(#SVGID_61_);fill:#FFDF99;}
	.st178{clip-path:url(#SVGID_61_);fill:#FFE09A;}
	.st179{clip-path:url(#SVGID_61_);fill:#FFE09B;}
	.st180{clip-path:url(#SVGID_61_);fill:#FFE19C;}
	.st181{clip-path:url(#SVGID_61_);fill:#FFE19D;}
	.st182{clip-path:url(#SVGID_61_);fill:#FFE29E;}
	.st183{clip-path:url(#SVGID_61_);fill:#FFE29F;}
	.st184{clip-path:url(#SVGID_61_);fill:#FFE3A0;}
	.st185{clip-path:url(#SVGID_61_);fill:#FFE3A1;}
	.st186{clip-path:url(#SVGID_61_);fill:#FFE4A2;}
	.st187{clip-path:url(#SVGID_61_);fill:#FFE4A3;}
	.st188{clip-path:url(#SVGID_61_);fill:#FFE5A4;}
	.st189{clip-path:url(#SVGID_61_);fill:#FFE5A5;}
	.st190{clip-path:url(#SVGID_61_);fill:#FFE6A6;}
	.st191{clip-path:url(#SVGID_61_);fill:#FFE6A7;}
	.st192{clip-path:url(#SVGID_61_);fill:#FFE7A8;}
	.st193{clip-path:url(#SVGID_61_);fill:#FFE7A9;}
	.st194{clip-path:url(#SVGID_61_);fill:#FFE8AA;}
	.st195{clip-path:url(#SVGID_61_);fill:#FFE8AB;}
	.st196{clip-path:url(#SVGID_61_);fill:#FFE9AC;}
	.st197{clip-path:url(#SVGID_61_);fill:#FFE9AD;}
	.st198{clip-path:url(#SVGID_61_);fill:#FFEAAE;}
	.st199{clip-path:url(#SVGID_61_);fill:#FFEAAF;}
	.st200{clip-path:url(#SVGID_61_);fill:#FFEBB0;}
	.st201{clip-path:url(#SVGID_61_);fill:#FFEBB1;}
	.st202{clip-path:url(#SVGID_61_);fill:#FFECB2;}
	.st203{clip-path:url(#SVGID_61_);fill:#FFECB3;}
	.st204{clip-path:url(#SVGID_61_);fill:#FEEDB4;}
	.st205{clip-path:url(#SVGID_61_);fill:#FEEDB5;}
	.st206{clip-path:url(#SVGID_61_);fill:#FEEEB7;}
	.st207{clip-path:url(#SVGID_61_);fill:#FEEEB8;}
	.st208{clip-path:url(#SVGID_61_);fill:#FEEFB9;}
	.st209{clip-path:url(#SVGID_61_);fill:#FEEFBA;}
	.st210{clip-path:url(#SVGID_61_);fill:#FEF0BB;}
	.st211{clip-path:url(#SVGID_61_);fill:#FEF0BC;}
	.st212{clip-path:url(#SVGID_61_);fill:#FEF1BD;}
	.st213{clip-path:url(#SVGID_61_);fill:#FEF1BE;}
	.st214{clip-path:url(#SVGID_61_);fill:#FEF2BF;}
	.st215{clip-path:url(#SVGID_61_);fill:#FEF2C0;}
	.st216{clip-path:url(#SVGID_61_);fill:#FEF3C1;}
	.st217{clip-path:url(#SVGID_61_);fill:#FEF3C2;}
	.st218{clip-path:url(#SVGID_61_);fill:#FEF3C3;}
	.st219{clip-path:url(#SVGID_61_);fill:#FEF4C4;}
	.st220{clip-path:url(#SVGID_61_);fill:#FEF4C5;}
	.st221{clip-path:url(#SVGID_61_);fill:#FEF5C6;}
	.st222{clip-path:url(#SVGID_61_);fill:#FEF5C7;}
	.st223{clip-path:url(#SVGID_61_);fill:#FEF6C8;}
	.st224{clip-path:url(#SVGID_61_);fill:#FEF6C9;}
	.st225{clip-path:url(#SVGID_61_);fill:#FEF7CA;}
	.st226{clip-path:url(#SVGID_61_);fill:#FEF7CB;}
	.st227{clip-path:url(#SVGID_61_);fill:#FEF8CC;}
	.st228{clip-path:url(#SVGID_61_);fill:#FEF8CD;}
	.st229{clip-path:url(#SVGID_61_);fill:#FEF9CE;}
	.st230{clip-path:url(#SVGID_61_);fill:#FEF9CF;}
	.st231{clip-path:url(#SVGID_61_);fill:#FEFAD0;}
	.st232{clip-path:url(#SVGID_61_);fill:#FEFAD1;}
	.st233{clip-path:url(#SVGID_61_);fill:#FEFBD2;}
	.st234{clip-path:url(#SVGID_61_);fill:#FEFBD3;}
	.st235{clip-path:url(#SVGID_61_);fill:#FEFBD4;}
	.st236{clip-path:url(#SVGID_61_);fill:#FEFCD5;}
	.st237{clip-path:url(#SVGID_61_);fill:#FEFDD6;}
	.st238{clip-path:url(#SVGID_61_);fill:#FEFDD7;}
	.st239{clip-path:url(#SVGID_61_);fill:#FEFED8;}
	.st240{clip-path:url(#SVGID_61_);fill:#FEFED9;}
	.st241{clip-path:url(#SVGID_61_);fill:#FEFFDA;}
	.st242{clip-path:url(#SVGID_61_);fill:#FEFFDB;}
	.st243{fill:url(#SVGID_66_);}
	.st244{fill:url(#SVGID_67_);}
	.st245{fill:url(#SVGID_68_);}
	.st246{fill:url(#SVGID_69_);}
	.st247{fill:url(#SVGID_70_);}
	.st248{fill:url(#SVGID_71_);}
	.st249{fill:url(#SVGID_72_);}
	.st250{fill:url(#SVGID_73_);}
	.st251{fill:url(#SVGID_74_);}
	.st252{fill:url(#SVGID_75_);}
	.st253{fill:url(#SVGID_76_);}
	.st254{fill:url(#SVGID_77_);}
	.st255{fill:url(#SVGID_78_);}
	.st256{fill:url(#SVGID_79_);}
	.st257{fill:url(#SVGID_80_);}
	.st258{fill:url(#SVGID_81_);}
	.st259{fill:url(#SVGID_82_);}
	.st260{fill:url(#SVGID_83_);}
	.st261{fill:url(#SVGID_84_);}
	.st262{fill:url(#SVGID_85_);}
	.st263{fill:#80E3F9;}
	.st264{fill:#C7FFFF;}
	.st265{fill:#FFF3AB;}
	.st266{fill:#FFED83;stroke:#070B2D;stroke-width:2;stroke-miterlimit:10;}
	.st267{fill:url(#SVGID_86_);}
	.st268{fill:url(#SVGID_87_);}
	.st269{fill:url(#SVGID_88_);}
	.st270{fill:none;stroke:#9597A0;stroke-linejoin:round;stroke-miterlimit:10;}
	.st271{fill:url(#SVGID_89_);}
	.st272{fill:url(#SVGID_90_);}
	.st273{fill:url(#SVGID_91_);}
	.st274{fill:url(#SVGID_92_);}
	.st275{fill:url(#SVGID_93_);}
	.st276{fill:none;stroke:#070B2D;stroke-width:6;stroke-linecap:round;stroke-linejoin:round;stroke-miterlimit:10;}
	.st277{fill:url(#SVGID_94_);}
	.st278{fill:url(#SVGID_95_);}
	.st279{fill:url(#SVGID_96_);}
	.st280{fill:url(#SVGID_97_);}
	.st281{fill:url(#SVGID_98_);}
	.st282{fill:url(#SVGID_99_);}
	.st283{fill:url(#SVGID_100_);}
</style>
<g>
	<linearGradient id="SVGID_2_" gradientUnits="userSpaceOnUse" x1="45" y1="90" x2="45" y2="0">
		<stop  offset="5.618000e-03" style="stop-color:#FFB01D"/>
		<stop  offset="1" style="stop-color:#FEDB11"/>
	</linearGradient>
	<path style="fill:url(#SVGID_2_);" d="M66,90H24C10.7,90,0,79.3,0,66V24C0,10.7,10.7,0,24,0h42c13.3,0,24,10.7,24,24v42
		C90,79.3,79.3,90,66,90z"/>
	<g>
		
			<image style="overflow:visible;opacity:0.25;" width="78" height="81" xlink:href="AE0102F8291A30B6.png"  transform="matrix(1 0 0 1 0.7647 7.4145)">
		</image>
		<g>
			<g>
				<linearGradient id="SVGID_4_" gradientUnits="userSpaceOnUse" x1="46.7708" y1="39.7565" x2="33.1435" y2="16.1534">
					<stop  offset="5.618000e-03" style="stop-color:#FFDA8D"/>
					<stop  offset="3.371508e-02" style="stop-color:#FFDB8F"/>
					<stop  offset="1" style="stop-color:#FEFFDB"/>
				</linearGradient>
				<circle style="fill:url(#SVGID_4_);" cx="40" cy="28" r="13.6"/>
				<linearGradient id="SVGID_6_" gradientUnits="userSpaceOnUse" x1="48.1116" y1="80.0487" x2="28.5075" y2="46.0934">
					<stop  offset="5.618000e-03" style="stop-color:#FFDA8D"/>
					<stop  offset="3.371508e-02" style="stop-color:#FFDB8F"/>
					<stop  offset="1" style="stop-color:#FEFFDB"/>
				</linearGradient>
				<path style="fill:url(#SVGID_6_);" d="M64.8,70.2c1,0,1.8-0.8,1.7-1.8c-0.1-2.1-0.5-4.1-1.1-6.1c-2.2-7-7.2-12.8-13.7-16l0,0
					c-0.3-0.2-0.6-0.3-0.9-0.4c-0.1,0-0.2-0.1-0.3-0.1c-0.6-0.2-1.1-0.5-1.7-0.7c-0.2-0.1-0.3-0.1-0.5-0.1c-0.5-0.2-0.9-0.3-1.4-0.4
					c-0.2,0-0.3-0.1-0.5-0.1c-0.6-0.1-1.2-0.3-1.9-0.4c-0.1,0-0.2,0-0.4-0.1c-0.5-0.1-1.1-0.1-1.6-0.2c-0.2,0-0.4,0-0.5,0
					c-0.7,0-1.3-0.1-2-0.1c0,0,0,0,0,0h0h0c0,0,0,0,0,0c-0.7,0-1.3,0-2,0.1c-0.2,0-0.4,0-0.5,0c-0.5,0.1-1.1,0.1-1.6,0.2
					c-0.1,0-0.2,0-0.4,0.1c-0.6,0.1-1.2,0.2-1.9,0.4c-0.2,0-0.3,0.1-0.5,0.1c-0.5,0.1-1,0.3-1.4,0.4c-0.2,0-0.3,0.1-0.5,0.1
					c-0.6,0.2-1.2,0.4-1.7,0.7c-0.1,0-0.2,0.1-0.3,0.1c-0.3,0.1-0.6,0.3-0.9,0.4l0,0c-6.5,3.2-11.5,8.9-13.7,16
					c-0.6,1.9-1,4-1.1,6.1c-0.1,1,0.7,1.8,1.7,1.8H64.8"/>
			</g>
		</g>
	</g>
	<g>
		
			<image style="overflow:visible;opacity:0.15;" width="60" height="61" xlink:href="AE0102F8291A30BA.png"  transform="matrix(1 0 0 1 31.6884 32.4563)">
		</image>
		<g>
			<linearGradient id="SVGID_8_" gradientUnits="userSpaceOnUse" x1="62.0558" y1="74.6688" x2="62.0558" y2="39.4183">
				<stop  offset="0" style="stop-color:#FFFFCD"/>
				<stop  offset="0.9944" style="stop-color:#FFFFFF"/>
			</linearGradient>
			<path style="fill:url(#SVGID_8_);" d="M78.1,59.4l-0.7-0.3c-0.7-0.3-1.2-1-1.2-1.8c0-0.2,0-0.4,0-0.6c0-0.8,0.5-1.5,1.2-1.8
				l0.7-0.3c1.3-0.6,2-2.1,1.4-3.4l-1-2.4c-0.6-1.3-2.1-2-3.4-1.4l-0.7,0.3c-0.7,0.3-1.6,0.1-2.1-0.4c-0.1-0.1-0.3-0.3-0.4-0.4
				c-0.6-0.5-0.7-1.4-0.4-2.1l0.3-0.7c0.6-1.3-0.1-2.9-1.4-3.4l-2.4-1c-1.3-0.6-2.9,0.1-3.4,1.4l-0.3,0.7c-0.3,0.7-1,1.2-1.8,1.2
				c-0.2,0-0.4,0-0.6,0c-0.8,0-1.5-0.5-1.8-1.2L59.7,41c-0.6-1.3-2.1-2-3.4-1.4l-2.4,1c-1.3,0.6-2,2.1-1.4,3.4l0.3,0.7
				c0.3,0.7,0.1,1.6-0.4,2.1c-0.1,0.1-0.3,0.3-0.4,0.4c-0.5,0.6-1.4,0.7-2.1,0.4l-0.7-0.3c-1.3-0.6-2.9,0.1-3.4,1.4l-1,2.4
				c-0.6,1.3,0.1,2.9,1.4,3.4l0.7,0.3c0.7,0.3,1.2,1,1.2,1.8c0,0.2,0,0.4,0,0.6c0,0.8-0.5,1.5-1.2,1.8L46,59.4
				c-1.3,0.6-2,2.1-1.4,3.4l1,2.4c0.6,1.3,2.1,2,3.4,1.4l0.7-0.3c0.7-0.3,1.6-0.1,2.1,0.4c0.1,0.1,0.3,0.3,0.4,0.4
				c0.6,0.5,0.7,1.4,0.4,2.1L52.4,70c-0.6,1.3,0.1,2.9,1.4,3.4l2.4,1c1.3,0.6,2.9-0.1,3.4-1.4l0.3-0.7c0.3-0.7,1-1.2,1.8-1.2
				c0.2,0,0.4,0,0.6,0c0.8,0,1.5,0.5,1.8,1.2l0.3,0.7c0.6,1.3,2.1,2,3.4,1.4l2.4-1c1.3-0.6,2-2.1,1.4-3.4l-0.3-0.7
				c-0.3-0.7-0.1-1.6,0.4-2.1c0.1-0.1,0.3-0.3,0.4-0.4c0.5-0.6,1.4-0.7,2.1-0.4l0.7,0.3c1.3,0.6,2.9-0.1,3.4-1.4l1-2.4
				C80,61.5,79.4,60,78.1,59.4z M67.6,62.6c-3.1,3.1-8,3.1-11.1,0c-3.1-3.1-3.1-8,0-11.1c3.1-3.1,8-3.1,11.1,0
				C70.7,54.6,70.7,59.5,67.6,62.6z"/>
		</g>
	</g>
</g>
</svg>
