<svg id="图层_1" data-name="图层 1" xmlns="http://www.w3.org/2000/svg" xmlns:xlink="http://www.w3.org/1999/xlink" viewBox="0 0 1515.92 617.18"><defs><style>.cls-1{fill:#fff;}.cls-2{fill:url(#未命名的渐变_855);}.cls-3{fill:url(#未命名的渐变_855-2);}.cls-4{fill:url(#未命名的渐变_856);}</style><linearGradient id="未命名的渐变_855" x1="976.59" y1="197.08" x2="1069.7" y2="358.35" gradientUnits="userSpaceOnUse"><stop offset="0" stop-color="#fff" stop-opacity="0"/><stop offset="1" stop-color="#fff"/></linearGradient><linearGradient id="未命名的渐变_855-2" x1="632.82" y1="381.8" x2="632.82" y2="21.65" xlink:href="#未命名的渐变_855"/><linearGradient id="未命名的渐变_856" x1="495.19" y1="250.13" x2="1120.08" y2="250.13" gradientUnits="userSpaceOnUse"><stop offset="0" stop-color="#fff"/><stop offset="1" stop-color="#fff" stop-opacity="0"/></linearGradient></defs><title>产品logo-转曲</title><path class="cls-1" d="M399.38,18C376,17.91,358.15,36.65,358.9,58.49c4.76,45,46.69,25.49,40.48,53.41,1.62-1.62,40.47-20.37,40.47-53.41A40.54,40.54,0,0,0,399.38,18"/><path class="cls-1" d="M181.83,153,239,284.64H178v.09c-.47,0-.91-.14-1.39-.14a25.25,25.25,0,0,0-.35,50.49l84.67.25,26.52,60.92c5.12,12.09,14.42,20,27.9,20,15.35,0,27-12.08,27-27.42A25,25,0,0,0,339,376.72L218.11,107c-6.51-14.4-17.68-23.24-34-23.24h-2.8c-16.27,0-27.91,8.84-34.41,23.24L26,376.72c-2.33,4.64-3.73,8.83-3.73,13a26.2,26.2,0,0,0,26.51,26.49c12.1,0,21.86-6.5,26.51-18.13Z"/><path class="cls-1" d="M372.84,166.42c0-15.81,12.09-28.36,27.91-28.36a28.17,28.17,0,0,1,28.36,28.36V388.66c0,15.81-12.54,27.9-28.36,27.9a27.69,27.69,0,0,1-27.91-27.9Z"/><path class="cls-1" d="M1471.36,257.46a96.32,96.32,0,0,0-42-27.64q-24.19-7.9-62.66-14.67-35.17-5.64-51.93-12.69T1298,179.61q0-15.24,13.74-24.26t40.12-9q25.83,0,52.22,11.57t45.06,26.8l29.68-55.29q-18.69-15.81-51.66-30.75t-74.75-15q-59.89,0-93.43,26.8T1225.42,183q0,35,17.31,54.73t40.67,27.64q23.36,7.9,60.73,15.24,35.17,6.76,51.39,13.54t16.21,23.69q0,15.24-16.21,25.11t-43.7,9.87a166,166,0,0,1-60.45-11.28q-29.13-11.29-46.72-27.65l-30.78,57q18.69,16.93,54.69,31.32t83.26,14.38q62.65,0,100-26.79t37.37-77.58q0-35-17.86-54.73"/><path class="cls-2" d="M941.56,188.23l.24.24c16.19-17.89,38.61-28.15,64.64-28.15a88.47,88.47,0,1,1,0,176.94,213.69,213.69,0,0,1-147.74-59l-12.94,14.07a166.44,166.44,0,0,0,326.84-34c.18-3.17.28-6.35.28-9.56a166.14,166.14,0,0,0-48.75-117.68c-15.26-15.26-33.93-26.85-53.76-35.23-11.28-4.77-25.21-7.31-37.13-9.48Z"/><path class="cls-3" d="M610.91,83.19c7,4.84,2.57,6.09-1.49,8.12A19.68,19.68,0,0,0,606.79,93q-5,1.76-10,3.85A166.34,166.34,0,0,0,495.19,250.12h0A166.48,166.48,0,0,0,630.78,413.71l89.79-97.62c-1.13,1-2.3,2-3.49,3l.09-.08a88.47,88.47,0,0,1-142.37-51.8q-.81-4.14-1.22-8.4h0l-.18-2.11c0-.09,0-.19,0-.28q-.07-.93-.12-1.86c0-.24,0-.48,0-.71,0-.49,0-1-.05-1.46s0-1.25,0-1.88c0-.11,0-.22,0-.34q0-1.06,0-2.13c0-.2,0-.39,0-.59,0-.52,0-1,.06-1.54l0-.68c0-.5.06-1,.1-1.49,0-.21,0-.43,0-.64l.15-1.63c0-.15,0-.31,0-.45.15-1.43.33-2.85.55-4.26l0-.23c.1-.62.2-1.23.31-1.85,0-.13,0-.27.07-.41.11-.57.21-1.13.33-1.7,0-.13.05-.26.08-.4.13-.61.26-1.21.4-1.82,0-.07,0-.14,0-.21.49-2.09,1.05-4.16,1.68-6.19l.06-.2q.29-.91.6-1.83a1.72,1.72,0,0,1,.07-.21c.22-.65.44-1.29.67-1.93a0,0,0,0,0,0,0c.51-1.36,1-2.7,1.6-4,.28-.65.55-1.3.85-1.94,0,0,0,0,0,0,.28-.64.58-1.26.88-1.89a.59.59,0,0,1,0-.08c1-2,2-3.91,3.07-5.8.69-1.18,1.39-2.34,2.12-3.49h0a88.68,88.68,0,0,1,51.39-37.73,76,76,0,0,1,16.09-2.78q3.49-.28,7-.28a88.39,88.39,0,0,1,30.3,5.32A156.3,156.3,0,0,1,730,185.44c3.39,2.22,6.34,5.11,9.49,7.69,2.11,2.2,4.23,4.3,6.94.72,9.42-12.27,30.32-35.71,22.18-41l-.14-.07c-14.94-12.31-29.84-24.69-44.86-36.91-3.63-3-4.87-6.26-3-10.61.51-4.6.24-8.25-1-11.18v0c-2.36-5.43-8.17-8.43-18.89-10.56C676.13,77.05,651.48,70.8,627,64c-16.66-4.61-32.51-11.2-47.7-25,3.87,21.88,16.74,34,31.62,44.21"/><path class="cls-4" d="M943,96.81a165.94,165.94,0,0,0-52.88,35.64q-4.39,4.4-8.43,9.07l-59.66,64.24s-96.7,105.72-101.49,110.33l-4,4.34a133.35,133.35,0,0,1-221.21-78.05q-.18,3.87-.18,7.75a166.39,166.39,0,0,0,280.6,121.09l16.12-17.52h0l55.25-60.06L972.88,157a133.45,133.45,0,0,1,147.2-29.72A166.55,166.55,0,0,0,943,96.81"/><path class="cls-1" d="M34.68,520.33a7.25,7.25,0,0,1-3.26,2.17,3.42,3.42,0,0,1-3-1.09,3.21,3.21,0,0,1-.89-3,12.05,12.05,0,0,1,2.67-4c.92-1.06,1.75-2,2.47-2.93a30.24,30.24,0,0,0,2-2.77c.63-1,1.26-2,1.89-3.07s1.26-2.32,1.93-3.71q1.48-3.17,2.77-3.81a3.44,3.44,0,0,1,2.87-.05,3.53,3.53,0,0,1,2.37,2.33c.27,1-.13,2.59-1.18,4.7H70q4.25,0,4.25,3.66T70,512.6H57.26q-.1,3.18-.25,5.94a37,37,0,0,1-.64,5.25H72.5a5.16,5.16,0,0,1,3.12.84,3.27,3.27,0,0,1,1.14,2.82q0,3.76-4.26,3.77H62.8c1.72,1.71,3.3,3.35,4.75,4.9s2.91,3.08,4.36,4.6q2.48,2.87,2.72,4.41a3.28,3.28,0,0,1-1.14,2.92,3.4,3.4,0,0,1-3,1.13c-1.09-.16-2.32-1-3.71-2.62q-1.49-1.68-2.82-3.27T61.12,540c-1-1.13-2.07-2.28-3.22-3.47s-2.43-2.51-3.81-4a27.79,27.79,0,0,1-3,5.74,35.69,35.69,0,0,1-4.36,5.2,62.87,62.87,0,0,1-5.84,5.1q-3.32,2.58-7.57,5.35-3.37,2-4.8,1.93A3,3,0,0,1,26.07,554a6.62,6.62,0,0,1-.54-1.49,2.38,2.38,0,0,1,.19-1.48A5,5,0,0,1,27,549.38a22.07,22.07,0,0,1,2.63-1.93,71.07,71.07,0,0,0,10.74-8.07,29.54,29.54,0,0,0,6.18-8.16H30c-2.71,0-4.06-1.23-4.06-3.67s1.35-3.76,4.06-3.76H49a54.54,54.54,0,0,0,1-11.19H40.92q-1.38,2.08-3,4.06a43.3,43.3,0,0,1-3.27,3.67m74.65,61.18c0,3-.56,5.23-1.68,6.58s-3.24,2-6.34,2H44.59q-4.67,0-6.34-2c-1.12-1.35-1.68-3.55-1.68-6.58V559.23q0-4.54,1.68-6.53t6.34-2h56.72q4.65,0,6.34,2t1.68,6.53Zm-7.52-21.58c0-1.13-.43-1.69-1.29-1.69H45.28c-.79,0-1.19.56-1.19,1.69v6.93h57.72Zm0,14.05H44.09v6.74c0,1.25.4,1.88,1.19,1.88h55.24c.86,0,1.29-.63,1.29-1.88Zm12.77-37.62a25.52,25.52,0,0,1-.35,4.61,6.18,6.18,0,0,1-1.34,3,5.23,5.23,0,0,1-2.77,1.58,19,19,0,0,1-4.55.45H88.14a18.42,18.42,0,0,1-4.5-.45A5.41,5.41,0,0,1,80.92,544a5.87,5.87,0,0,1-1.34-2.92,26.18,26.18,0,0,1-.35-4.71V513.2a25.6,25.6,0,0,1,.35-4.61,5.87,5.87,0,0,1,1.34-2.92,5.08,5.08,0,0,1,2.72-1.48,20.43,20.43,0,0,1,4.5-.4h17.43a20.37,20.37,0,0,1,4.5.4,5.15,5.15,0,0,1,2.73,1.48,6.27,6.27,0,0,1,1.38,2.92,22.68,22.68,0,0,1,.4,4.61Zm-7.43-23.46c0-1.12-.43-1.68-1.28-1.68h-18q-1.29,0-1.29,1.68v23.76c0,1.25.43,1.88,1.29,1.88h18c.85,0,1.28-.63,1.28-1.88Z"/><path class="cls-1" d="M253.3,512.11c-1-1.65-1.38-2.85-1.19-3.62a4.33,4.33,0,0,1,1.79-2.22,2.94,2.94,0,0,1,3-.5,5.84,5.84,0,0,1,2.67,2.58q1.18,2,2.38,4.25c.79,1.52,1.54,3,2.27,4.51s1.4,2.92,2,4.3,1.14,2.58,1.54,3.57c1.32,3,.92,5-1.19,6.14h.1a3.67,3.67,0,0,1-3.12.34q-1.44-.54-2.53-3.51a11,11,0,0,0-.49-1.24,9.73,9.73,0,0,1-.5-1.34l-31.38,3.07a8.44,8.44,0,0,1-5.25-.84,3.55,3.55,0,0,1-1.78-3.12,5.59,5.59,0,0,1,.4-2,6.34,6.34,0,0,1,1.48-2.13h-.1q4.75-5.64,8.47-10.24t7.08-9.36a9.19,9.19,0,0,1,2.72-2.87,3.78,3.78,0,0,1,3.12.2,3.83,3.83,0,0,1,2.08,2.43q.39,1.53-1.59,4.5a161.28,161.28,0,0,1-12.87,15.84L257,518.74c-.52-1.12-1.1-2.24-1.73-3.36s-1.27-2.21-1.93-3.27m-21.88,77.12a4.21,4.21,0,0,1-.89,2.77,3.36,3.36,0,0,1-2.77,1.09c-1.58,0-2.62-.36-3.12-1.09a4.68,4.68,0,0,1-.74-2.67v-49.9q0-4.65,1.68-6.68t6.93-2h24.95q5.15,0,6.88,2t1.73,6.93V582.2c0,3.17-.84,5.54-2.52,7.13s-4.21,2.28-7.58,2.08a38.09,38.09,0,0,1-5.14-.8,32.71,32.71,0,0,1-5.15-1.58q-3.17-1-4-2.47a3.8,3.8,0,0,1-.2-3.17A3.3,3.3,0,0,1,243.9,581a8,8,0,0,1,4.06.6q6,2.48,8.61,2.47a1.84,1.84,0,0,0,1.63-.64,3,3,0,0,0,.45-1.73V569H231.42Zm0-42.87h27.23v-6.83a1.25,1.25,0,0,0-.35-1,1.24,1.24,0,0,0-.84-.3h-25q-1,0-1,1.29Zm0,15.35h27.23v-7.92H231.42Zm47.42,14.65a13.17,13.17,0,0,0,.25,2.77,3.25,3.25,0,0,0,1,1.78,5.18,5.18,0,0,0,2.13,1,23.83,23.83,0,0,0,3.61.55c2.25.2,4.16.29,5.75.29,1.12,0,2.22,0,3.31-.14s2.2-.22,3.32-.35a22.57,22.57,0,0,0,3.36-.74,4.92,4.92,0,0,0,2.23-1.39,5.93,5.93,0,0,0,1.24-2.47,16.36,16.36,0,0,0,.39-3.92,7.57,7.57,0,0,1,.75-3.81,3.32,3.32,0,0,1,2.72-1.43,3.54,3.54,0,0,1,3.32,1.14,5.19,5.19,0,0,1,.84,3.71,41.31,41.31,0,0,1-.89,7.37,11.86,11.86,0,0,1-2.18,4.76,9.2,9.2,0,0,1-3.91,2.77,26.91,26.91,0,0,1-6,1.43c-1.12.14-2.39.25-3.81.35s-2.92.15-4.51.15q-4,0-7.92-.3a35.67,35.67,0,0,1-6.09-.94,8.39,8.39,0,0,1-3.86-2.08,8.1,8.1,0,0,1-2-3.91,28.23,28.23,0,0,1-.59-6.33V549a3.48,3.48,0,0,1,3.76-4,3.78,3.78,0,0,1,2.72,1,3.88,3.88,0,0,1,1,3v11.09A102.88,102.88,0,0,0,293,556.41a65.81,65.81,0,0,0,10.25-4.6q2.87-1.59,4.31-1.39a3.42,3.42,0,0,1,2.42,1.88,3.87,3.87,0,0,1,.64,3.22c-.29,1-1.5,2-3.61,3s-4.31,2-6.39,2.87-4.22,1.67-6.43,2.43-4.57,1.45-7.08,2.07-5.25,1.24-8.22,1.84Zm.1-46.93a11.3,11.3,0,0,0,.3,2.83,3.58,3.58,0,0,0,1.09,1.83,6.18,6.18,0,0,0,2.18,1.14,30.51,30.51,0,0,0,6.28,1c1,0,1.93,0,2.92,0s2,0,2.92,0a19.15,19.15,0,0,0,2.53-.25,13.18,13.18,0,0,0,2.72-.55,3.23,3.23,0,0,0,1.63-1.14,4.38,4.38,0,0,0,.75-2.22c.1-1,.15-2.3.15-4a5.58,5.58,0,0,1,.89-3.27,3.39,3.39,0,0,1,3.16-1.19,4.39,4.39,0,0,1,2.93,1c.62.63.94,1.8.94,3.52a34.78,34.78,0,0,1-.55,6.73,10.85,10.85,0,0,1-1.83,4.4,8,8,0,0,1-3.51,2.63,22.32,22.32,0,0,1-5.6,1.28,57.52,57.52,0,0,1-7.22.4c-2.71,0-5.19-.06-7.43-.2a28.55,28.55,0,0,1-6.43-1.09,8.37,8.37,0,0,1-3.87-2.37,8.65,8.65,0,0,1-1.88-4.06,32.08,32.08,0,0,1-.49-6.14V503a3.68,3.68,0,0,1,1-3,4.19,4.19,0,0,1,2.72-.84q3.66,0,3.66,3.86v13a80.37,80.37,0,0,0,11.59-3.86,60.9,60.9,0,0,0,10.09-5.35c1.79-1.19,3.25-1.71,4.41-1.58a3.5,3.5,0,0,1,2.72,2,3.67,3.67,0,0,1,.35,3.12q-.54,1.43-3.42,3.12a77.79,77.79,0,0,1-12.62,6.18,102.57,102.57,0,0,1-13.12,4Z"/><path class="cls-1" d="M472.81,506.07c1.19,1.72,1.65,3.1,1.39,4.16h28.21c2.24,0,3.37,1.18,3.37,3.56s-1.13,3.47-3.37,3.47H470.53v4.85H500a3.53,3.53,0,0,1,2.68.94,3.68,3.68,0,0,1,.89,2.62q0,3.57-3.57,3.57h-29.5v4.85h28.91a3.49,3.49,0,0,1,2.67.94,3.62,3.62,0,0,1,.89,2.62c0,2.31-1.18,3.46-3.56,3.46H470.53v5H503a3.53,3.53,0,0,1,2.68.94,3.66,3.66,0,0,1,.89,2.62c0,2.38-1.19,3.56-3.57,3.56H466a5.29,5.29,0,0,1,.49,2.38v4.95H503.9a4.75,4.75,0,0,1,2.87.69c.59.46.89,1.45.89,3a3.52,3.52,0,0,1-.84,2.72,4.43,4.43,0,0,1-2.92.75H475.78a130.47,130.47,0,0,0,13.07,7.17q6.72,3.23,14.55,6.09,3.77,1.4,4.65,2.68a3.61,3.61,0,0,1,.3,3.26,3.25,3.25,0,0,1-2.08,2.43c-1,.3-2.67,0-5-.94a121.53,121.53,0,0,1-18-8.27q-8.51-4.8-16.73-10.44v19.9a3.67,3.67,0,0,1-.79,2.72,4.07,4.07,0,0,1-2.77.74,4.31,4.31,0,0,1-2.77-.74,3.39,3.39,0,0,1-.89-2.72v-19a96.89,96.89,0,0,1-8.86,6.33,100.06,100.06,0,0,1-18.67,9.21q-5,1.88-10.89,3.76-3.46,1.09-4.9.55a3.12,3.12,0,0,1-1.83-2.53,4,4,0,0,1,.45-3.21c.56-.76,1.8-1.41,3.71-1.93a105.54,105.54,0,0,0,17.37-6,94.3,94.3,0,0,0,15.8-9H419.65a4.81,4.81,0,0,1-3-.7,3.35,3.35,0,0,1-.84-2.67c0-1.52.31-2.52.94-3a4.71,4.71,0,0,1,2.92-.74h39.6v-4.95a4.57,4.57,0,0,1,.49-2.38H432.62v1.88a3.17,3.17,0,0,1-1,2.68,4.06,4.06,0,0,1-2.53.79q-3.66,0-3.66-3.47v-29.6l-2.13,2.13-2.13,2.13a5.21,5.21,0,0,1-3.41,1.88,3.33,3.33,0,0,1-2.63-1.29,4,4,0,0,1-1-2.72c0-1,.71-2,2-3.22q5.06-4.85,10.05-10.69A67.12,67.12,0,0,0,434.69,501a5.55,5.55,0,0,1,2.43-2.67,3.09,3.09,0,0,1,3,.49,3.28,3.28,0,0,1,1.78,1.93q.39,1.25-1,3.81c-.53,1-1.07,1.95-1.63,2.87s-1.14,1.85-1.73,2.78h29.5l-.1-.2c-.6-.79-1.34-1.75-2.23-2.87S463,505,462.12,504a5.61,5.61,0,0,1-1.54-3.07,2.87,2.87,0,0,1,1-2.28c1.92-1.71,3.86-1.41,5.84.89q1.4,1.7,2.83,3.42t2.52,3.12m-40.19,16h30.69v-4.85H432.62Zm0,12h30.69v-4.85H432.62Zm0,12h30.69v-5H432.62Z"/><path class="cls-1" d="M662.82,502.9q.2,2.58.54,5.1c.23,1.68.48,3.35.74,5h19.21c-.93-.59-2-1.19-3.12-1.78s-2.31-1.17-3.46-1.73-2.23-1.08-3.22-1.54l-2.38-1.09c-1.71-.72-2.75-1.52-3.12-2.37a4.31,4.31,0,0,1,.25-3.27c.53-1.32,1.27-2.06,2.23-2.23a6.87,6.87,0,0,1,3.51.55c.79.33,1.74.76,2.82,1.28s2.22,1.09,3.37,1.69,2.31,1.2,3.47,1.83,2.22,1.17,3.21,1.63c1.72.93,2.71,1.77,3,2.53a4.31,4.31,0,0,1-.39,3,5.8,5.8,0,0,1-1,1.49h8.31a5.38,5.38,0,0,1,3.12.79c.76.53,1.14,1.55,1.14,3.07q0,3.85-4.26,3.86H665.29a169,169,0,0,0,4.7,18.81,147.51,147.51,0,0,0,6.78,17.62q6.74-11.67,8.82-27.91c.19-1.92.66-3.17,1.38-3.77a3.91,3.91,0,0,1,3-.69c1.52.2,2.49.71,2.92,1.54s.48,2.29.15,4.4a111.61,111.61,0,0,1-4.8,18.91,70.22,70.22,0,0,1-7.57,15.25,89.74,89.74,0,0,0,5,8.61q2.72,4.15,5.79,8.31c.79,1.06,1.37,1.5,1.73,1.34s.71-1,1-2.52a62.45,62.45,0,0,0,1-6.24q.35-3.07.54-6.93a5,5,0,0,1,1.24-3.07,3.46,3.46,0,0,1,3-.89c1.52.13,2.51.59,3,1.39a6.66,6.66,0,0,1,.49,3.76c-.13,1.85-.29,3.58-.49,5.2s-.43,3.2-.69,4.75-.58,3.1-.94,4.65-.78,3.15-1.24,4.8a7.65,7.65,0,0,1-2.23,3.91,5.86,5.86,0,0,1-3.46,1.49,7.21,7.21,0,0,1-4-1,12.15,12.15,0,0,1-3.86-3.52,186.43,186.43,0,0,1-11.39-17q-10.79,11.69-29.9,19.21a9.25,9.25,0,0,1-4.7.89,3.11,3.11,0,0,1-2.42-2.37,4,4,0,0,1,.09-3.42c.53-.89,1.75-1.67,3.67-2.33q18.71-6.14,29.5-19-2.38-4.75-4.36-9.71t-3.66-10.34q-1.68-5.4-3.12-11.39t-2.62-12.72H625.1c-.53,0-.8.37-.8,1.09v10.1h21.79a22.09,22.09,0,0,1,3.71.25,4.25,4.25,0,0,1,2.27,1,4.1,4.1,0,0,1,1.14,2.22,18.82,18.82,0,0,1,.3,3.72c0,2.7,0,5.46-.1,8.26s-.16,5.43-.3,7.87a70.28,70.28,0,0,1-2,13.66,23.13,23.13,0,0,1-3.51,7.87,9.07,9.07,0,0,1-4.7,3.47,13.89,13.89,0,0,1-5.6.35,25.49,25.49,0,0,1-4-.89,41.35,41.35,0,0,1-5.79-2.38c-1.71-.79-2.74-1.67-3.07-2.62a4.11,4.11,0,0,1,.4-3.22,3.76,3.76,0,0,1,2.38-2.18,5.47,5.47,0,0,1,3.26.5,33.06,33.06,0,0,0,6.93,2.52,4.68,4.68,0,0,0,4.31-.94q1.64-1.49,2.42-5.4a89.54,89.54,0,0,0,1.29-10.94q.2-3.36.35-6.58t.15-6.38a3.43,3.43,0,0,0-.4-2,1.81,1.81,0,0,0-1.48-.5H624.3v9.5a106.36,106.36,0,0,1-1.93,20.35A108.89,108.89,0,0,1,617,588.34q-1.18,3-2.57,3.66a3.8,3.8,0,0,1-3.27-.1q-3.37-1.38-1.19-6.83a104.57,104.57,0,0,0,4.9-17.08,100.37,100.37,0,0,0,1.73-19.35V521.91q0-4.45,1.88-6.68T625.1,513h31.28c-.26-1.52-.51-3-.74-4.55s-.45-3.07-.64-4.66a7.55,7.55,0,0,1,.29-4.25c.46-.93,1.52-1.49,3.17-1.69a3.53,3.53,0,0,1,3.07.94q1.08,1.14,1.29,4.11"/><path class="cls-1" d="M816.89,501.52a3.46,3.46,0,0,1,.94-2.83,4,4,0,0,1,2.52-.74,4.54,4.54,0,0,1,2.82.74,3.46,3.46,0,0,1,.94,2.83v14.75h6.54q3.66,0,3.66,3.66a4.13,4.13,0,0,1-.84,2.82,3.62,3.62,0,0,1-2.82.94h-6.54v23.17c.93-.53,1.8-1.08,2.62-1.64s1.64-1.13,2.43-1.73q3-2.28,5.05-.69v-7.23a18.39,18.39,0,0,1,.35-4,4.71,4.71,0,0,1,1.28-2.47,5.47,5.47,0,0,1,2.53-1.29,16.78,16.78,0,0,1,4-.4H855a21.62,21.62,0,0,1,4.31.35,4.83,4.83,0,0,1,2.52,1.24,4.39,4.39,0,0,1,1.14,2.47,27.86,27.86,0,0,1,.25,4.06v8.32q0,4.26-1.64,6.28c-1.09,1.36-3.28,2-6.58,2H842.33a12,12,0,0,1-5.25-.89,4.53,4.53,0,0,1-2.38-3,10.34,10.34,0,0,1-1.18,1c-1.52,1.12-3.06,2.15-4.61,3.07s-3.15,1.85-4.8,2.77V581.7q0,5-1.83,7t-6.09,2.08a18.33,18.33,0,0,1-3.91-.49,48.51,48.51,0,0,1-4.9-1.39,3.34,3.34,0,0,1-2.18-1.78,3.89,3.89,0,0,1,.2-3.17,3.51,3.51,0,0,1,1.88-2,4.4,4.4,0,0,1,2.77.25l2.13.74a19.3,19.3,0,0,0,2,.55,3,3,0,0,0,2.08-.1q.6-.4.6-2V558.64c-1.26.53-2.53,1-3.82,1.48s-2.59.93-3.91,1.39a6.87,6.87,0,0,1-3.36.44,2.56,2.56,0,0,1-1.88-1.93,4.23,4.23,0,0,1,.19-3.61,5.69,5.69,0,0,1,3.27-2.33c1.65-.52,3.27-1.07,4.85-1.63a46.16,46.16,0,0,0,4.66-1.93V523.69h-9.81c-1.45,0-2.39-.31-2.82-.94a5,5,0,0,1-.64-2.82,4.31,4.31,0,0,1,.74-2.77,3.39,3.39,0,0,1,2.72-.89h9.81Zm56.42,61.38a69.92,69.92,0,0,0,21.59,18.31c2.17,1.12,3.48,2.13,3.91,3a3.37,3.37,0,0,1-.45,3.22,3.52,3.52,0,0,1-2.57,1.83c-1,.1-2.48-.45-4.46-1.63a89.27,89.27,0,0,1-12.17-8.91,78.75,78.75,0,0,1-10.5-11.29v21.88a3.32,3.32,0,0,1-3.66,3.86,3.42,3.42,0,0,1-2.67-.89,4.45,4.45,0,0,1-.8-3V567a111.72,111.72,0,0,1-11.83,12,84.21,84.21,0,0,1-13.41,9.46q-4.65,2.56-6.44-.79a2.85,2.85,0,0,1-.19-2.88c.46-.79,1.68-1.74,3.66-2.87a82,82,0,0,0,11.63-8,99.8,99.8,0,0,0,11.34-11H835.2c-2.38,0-3.56-1.19-3.56-3.57s1.18-3.46,3.56-3.46h26.33v-2.58a4,4,0,0,1,.8-2.92,3.86,3.86,0,0,1,2.67-.74,4.38,4.38,0,0,1,2.67.74c.66.5,1,1.47,1,2.92v2.58h25.25q3.86,0,3.86,3.46t-3.86,3.57Zm14.86-47c0,2.91-.57,5-1.69,6.39s-3.07,2-5.84,2H848.47q-4.56,0-6-2.07T841,515.87v-5.05c0-3,.53-5.06,1.59-6.29s3-1.83,5.84-1.83h32.17q4.15,0,5.84,1.74c1.12,1.15,1.69,3.28,1.69,6.38Zm-31.88,19.7c0-.92-.7-1.39-2.08-1.39H843c-1.19,0-1.78.47-1.78,1.39V544c0,1,.59,1.48,1.78,1.48h11.19c1.38,0,2.08-.49,2.08-1.48ZM881,510.92c0-.86-.7-1.29-2.08-1.29H850c-1.19,0-1.78.43-1.78,1.29V516c0,.92.59,1.39,1.78,1.39h29c1.38,0,2.08-.47,2.08-1.39Zm14.15,32.67a21.73,21.73,0,0,1-.34,4.31,4.66,4.66,0,0,1-1.29,2.52,5,5,0,0,1-2.52,1.19,22.53,22.53,0,0,1-4.06.3H874.8a22.53,22.53,0,0,1-4.06-.3,4.78,4.78,0,0,1-2.47-1.14,4.18,4.18,0,0,1-1.19-2.28,19.26,19.26,0,0,1-.3-3.81v-8.21a23,23,0,0,1,.3-4,5.89,5.89,0,0,1,1.19-2.77,5.36,5.36,0,0,1,2.42-1.63,12.32,12.32,0,0,1,4-.54H887a21.62,21.62,0,0,1,4.3.34,4.91,4.91,0,0,1,2.53,1.24,4.39,4.39,0,0,1,1.14,2.47,28.06,28.06,0,0,1,.24,4.06Zm-7-8.22q0-1.38-2-1.38h-10.7q-1.68,0-1.68,1.38v8.32c0,1,.56,1.48,1.68,1.48h10.7c1.32,0,2-.49,2-1.48Z"/><path class="cls-1" d="M1028,505.67c-1.32,4.1-2.74,8-4.26,11.64s-3.13,7.21-4.85,10.64v60.49a5.59,5.59,0,0,1-.84,3.21,3,3,0,0,1-2.72,1.24,3.37,3.37,0,0,1-3-1.24,5.59,5.59,0,0,1-.84-3.21V540.52c-.8,1.19-1.59,2.33-2.38,3.42l-2.38,3.31a14,14,0,0,1-3.91,4,2.92,2.92,0,0,1-3.41-.49,3.74,3.74,0,0,1-1.54-3.27c0-1.38.94-3.17,2.73-5.34a125.31,125.31,0,0,0,12-18.32,95.44,95.44,0,0,0,7.78-19.7,8.84,8.84,0,0,1,2-4.31,3.49,3.49,0,0,1,3.22-.74q4.07.79,2.38,6.63m18.21-6.73q3.68.8,2.28,5.84c-.33,1.13-.64,2.18-.94,3.17s-.61,2-.94,3H1089a7.7,7.7,0,0,1,3.12.64q1.44.65,1.44,3.12c0,2.45-1.52,3.66-4.56,3.66h-31.28v18.42h27.72a7.07,7.07,0,0,1,3.36.74,3,3,0,0,1,1.39,2.92,3.3,3.3,0,0,1-1.34,2.92,5.75,5.75,0,0,1-3.41.94h-27.72v19.9h30.49a6.59,6.59,0,0,1,3.12.7c.89.46,1.34,1.45,1.34,3,0,2.5-1.49,3.76-4.46,3.76h-30.49v16.83a4.22,4.22,0,0,1-1.09,3.26,4.18,4.18,0,0,1-5.4,0,4.37,4.37,0,0,1-1-3.26v-70.1H1044a118.34,118.34,0,0,1-5,11.74q-2.73,5.49-5.89,10.64-2.19,3.46-3.81,3.86a3.85,3.85,0,0,1-3.32-.89,3.53,3.53,0,0,1-1.58-2.92q.09-1.53,2.07-4.41,2.77-4.05,5-7.87a80.65,80.65,0,0,0,3.91-7.77,83.14,83.14,0,0,0,3.12-8.31q1.4-4.36,2.68-9.41a6.86,6.86,0,0,1,1.83-3.61,3.54,3.54,0,0,1,3.21-.45"/><path class="cls-1" d="M1205.11,513.89a5.52,5.52,0,0,1-3.46-1,4.37,4.37,0,0,1,0-5.54,5.36,5.36,0,0,1,3.56-.89q8.11.09,17.08-.15t18-.8q9.06-.54,17.77-1.43t16.14-2a8.87,8.87,0,0,1,4.4.05c.83.36,1.37,1.27,1.63,2.72a3.3,3.3,0,0,1-.54,3c-.63.69-2,1.21-4.21,1.53s-4.34.65-6.88.95l-8.07.94c-2.83.33-5.71.62-8.61.89s-5.71.49-8.41.69q-6.54,4.65-12.33,8.37T1220,528.15q6.24-.21,12.23-.5t12-.49q5.83-2.88,10.69-5.5t8-4.6a10.45,10.45,0,0,1,3.71-1.64,3.24,3.24,0,0,1,2.92,1.24,3.33,3.33,0,0,1,.89,3.27,5.75,5.75,0,0,1-2.77,3.07q-4.54,2.67-10.39,5.74t-12.43,6.34q-6.58,3.25-13.71,6.53t-14.25,6.14q13-.5,26.08-.94t26.09-.94q-1.89-2.58-3.76-5t-3.87-4.66a7.35,7.35,0,0,1-1.88-3.26,3.26,3.26,0,0,1,1.09-2.68,4,4,0,0,1,3-1.33,5.06,5.06,0,0,1,3.37,2q4.85,5.54,9.26,11.68t8,12.18a5.5,5.5,0,0,1,1.09,3.76,4,4,0,0,1-2,2.57,3.72,3.72,0,0,1-3,.5,5.09,5.09,0,0,1-2.77-2.68c-.59-1-1.19-2.09-1.78-3.11s-1.22-2-1.88-3l-27,1.09v26.23q0,5.14-1.93,7.77a9.68,9.68,0,0,1-6,3.52,16.78,16.78,0,0,1-6.58-.15,39.2,39.2,0,0,1-8.37-2.72c-1.78-.93-2.75-1.84-2.92-2.73a5,5,0,0,1,.35-2.82,3.28,3.28,0,0,1,2.37-2.28,6.51,6.51,0,0,1,3.87.8,26.21,26.21,0,0,0,4.85,1.93,14.72,14.72,0,0,0,3.66.54q2.86,0,2.87-3.27V554.28l-31.88,1.19a12,12,0,0,1-6.43-1.09,4.55,4.55,0,0,1-2.58-3.12,4.69,4.69,0,0,1,1.44-3.81,13.23,13.23,0,0,1,5.59-3.36q5.14-1.89,11-4.31t11.78-5.1l-14.45.69a17,17,0,0,1-6.54-1c-1.51-.66-2.37-1.51-2.57-2.57a4.36,4.36,0,0,1,1.29-3.51,16.69,16.69,0,0,1,5.15-3.82q3.47-1.77,8.41-4.65t10.3-6.14c-4.1.14-8.24.23-12.43.3s-8.2,0-12-.1m18.62,48.61c-1.33,2.57-2.64,5-4,7.23s-2.73,4.37-4.21,6.38-3,4-4.66,5.84-3.38,3.81-5.29,5.79c-1.32,1.32-2.49,2-3.52,2a3.49,3.49,0,0,1-2.82-1.53q-2.37-2.78,1-5.94a72.05,72.05,0,0,0,9.16-10.44,93.07,93.07,0,0,0,7.67-13,5.8,5.8,0,0,1,2.33-2.58,3.51,3.51,0,0,1,3.22,0,3.22,3.22,0,0,1,2.08,2.38,7.09,7.09,0,0,1-1,3.86m60.48,20.2q2.77,4.45-.69,6.83a4.17,4.17,0,0,1-3,.69c-.89-.2-1.86-1.16-2.92-2.87q-4.07-7-8.61-13.47t-8-10.49a9.68,9.68,0,0,1-2.28-3.61c-.19-.89.23-1.9,1.29-3a3,3,0,0,1,3.07-1,8.79,8.79,0,0,1,3.56,2.42c1.26,1.46,2.63,3.12,4.11,5s3,3.88,4.51,6,3,4.33,4.6,6.64,3,4.61,4.4,6.93"/><path class="cls-1" d="M1424.52,572a4,4,0,0,1,.15,2.82c-.3.76-1.2,1.47-2.72,2.13-2.18,1-4.32,1.92-6.44,2.78s-4.25,1.64-6.43,2.37-4.42,1.45-6.73,2.18-4.79,1.42-7.43,2.08a8.53,8.53,0,0,1-4.4.34c-1-.29-1.6-1.17-1.93-2.62a4.07,4.07,0,0,1,.29-3c.46-.76,1.52-1.33,3.17-1.73q6.84-1.68,13.22-3.86t12.82-5a7.34,7.34,0,0,1,4.21-.84,3.41,3.41,0,0,1,2.22,2.32m-1.88-49.1q-2.87,4.76-5.49,8.81t-5.3,7.77q-2.67,3.72-5.49,7.18t-6,7c-.46.46-.63.76-.5.89s.7.13,1.69,0c2.5-.33,5.18-.81,8-1.44a72.73,72.73,0,0,0,7.53-2q4.85-1.68,5.84,2.48a3,3,0,0,1-.4,2.67,6.8,6.8,0,0,1-3.16,1.78,118.44,118.44,0,0,1-11.84,3,94.81,94.81,0,0,1-10.24,1.49,8.08,8.08,0,0,1-4.8-.69,4.72,4.72,0,0,1-2.28-2.63,5.66,5.66,0,0,1,.15-3.66,10.51,10.51,0,0,1,2.37-3.81A189,189,0,0,0,1405.12,537l-9.5.39c-3.24.14-5.3-.61-6.19-2.22s-.38-3.82,1.53-6.59q1.89-2.76,4-5.94T1399,516c1.32-2.28,2.63-4.57,3.91-6.88s2.46-4.55,3.52-6.73a8.73,8.73,0,0,1,2.67-3.47,3,3,0,0,1,3,0,3.11,3.11,0,0,1,2.13,2.48,8.17,8.17,0,0,1-1.14,4.15q-2.67,5.44-6.34,11.49t-7.22,11.38c-.33.53-.4.89-.2,1.09s.72.27,1.58.2l9.51-.4c1-1.51,1.93-3.05,2.82-4.6s1.8-3.12,2.72-4.7a7.81,7.81,0,0,1,2.67-3.27,3.36,3.36,0,0,1,3,0,3.14,3.14,0,0,1,2.23,2.33,5.84,5.84,0,0,1-1.14,3.81m36.83,2.67a6.32,6.32,0,0,1-1.39-3.36,3.51,3.51,0,0,1,1.69-2.68,3.19,3.19,0,0,1,3.12-.74,6.52,6.52,0,0,1,2.82,2.62q3.46,5.16,7.08,11.44t6.48,12.32c1,2.12,1.37,3.65,1.14,4.61a3.36,3.36,0,0,1-2,2.23,3.07,3.07,0,0,1-3.22.29c-.89-.52-1.8-1.78-2.72-3.76-.33-.79-.69-1.58-1.09-2.38l-1.19-2.37-8.41.39v33.66a9.59,9.59,0,0,0,.24,2.33,2.64,2.64,0,0,0,1,1.49,4.7,4.7,0,0,0,2.12.74,27.45,27.45,0,0,0,3.67.2,8.85,8.85,0,0,0,3.07-.45,3.51,3.51,0,0,0,1.88-2,15.21,15.21,0,0,0,.94-4.6c.16-2,.24-4.74.24-8.17,0-2.9,1.26-4.36,3.77-4.36a3.44,3.44,0,0,1,2.92,1.14,6.17,6.17,0,0,1,.84,3.62,108.54,108.54,0,0,1-.5,11.63,16.8,16.8,0,0,1-2,6.83,7.09,7.09,0,0,1-4.15,3.22,25.4,25.4,0,0,1-6.93.79,45,45,0,0,1-7.48-.5,9.52,9.52,0,0,1-4.41-1.78,6.29,6.29,0,0,1-2.12-3.46,23,23,0,0,1-.55-5.55V544.58l-11.88.69a115.92,115.92,0,0,1-1.24,15.2,56,56,0,0,1-3.16,12,40,40,0,0,1-5.4,9.6,49.56,49.56,0,0,1-7.82,8q-3,2.48-4.75,2.57a3.86,3.86,0,0,1-3.66-5,8.79,8.79,0,0,1,3.26-3.66,37.83,37.83,0,0,0,6.34-6.24,32.41,32.41,0,0,0,4.65-8.06,51.42,51.42,0,0,0,2.92-10.55,101.6,101.6,0,0,0,1.34-13.56l-6.24.3a8,8,0,0,1-4.6-.8,4.67,4.67,0,0,1-2.28-2.62,5.87,5.87,0,0,1,0-3.61,9.77,9.77,0,0,1,2.38-3.86q4.45-4.86,8.06-9.31t6.79-9h-13.47a4.14,4.14,0,0,1-3-.89,3.63,3.63,0,0,1-.89-2.67,3.77,3.77,0,0,1,.89-2.82,4.28,4.28,0,0,1,3-.85h21.68a61.1,61.1,0,0,0-2.27-5.74,4.74,4.74,0,0,1-.4-3.21,3.52,3.52,0,0,1,2.08-2.23c2.71-1.19,4.68-.26,5.94,2.77a84.73,84.73,0,0,1,2.77,8.41h23.86a3.09,3.09,0,0,1,3.76,3.67q0,3.56-3.76,3.56H1448c-2.45,4-4.85,7.51-7.23,10.64a119.07,119.07,0,0,1-8,9.46q-1.59,1.78.89,1.58l33-1.48c-1.19-2.11-2.4-4.14-3.61-6.09s-2.4-3.71-3.52-5.3"/></svg>