<svg id="图层_1" data-name="图层 1" xmlns="http://www.w3.org/2000/svg" xmlns:xlink="http://www.w3.org/1999/xlink" viewBox="0 0 28 28"><defs><style>.cls-1{fill:none;}.cls-2{clip-path:url(#clip-path);}.cls-3{fill:#9597a0;}</style><clipPath id="clip-path"><rect class="cls-1" width="28" height="28"/></clipPath></defs><title>可构建-1</title><g class="cls-2"><path class="cls-3" d="M14,11.87a2.7,2.7,0,1,0,2.7,2.7A2.7,2.7,0,0,0,14,11.87Zm0,4.2a1.5,1.5,0,1,1,1.5-1.5A1.5,1.5,0,0,1,14,16.07Z"/><path class="cls-3" d="M23.38,19.39l-.73-1.26V10.82A2.15,2.15,0,0,0,21.58,9L15.24,5.3l-.72-1.25a.63.63,0,0,0-1,0L12.76,5.3,6.42,9a2.15,2.15,0,0,0-1.07,1.86v7.31l-.73,1.26a.59.59,0,0,0,0,.6.6.6,0,0,0,.52.3H6.6l6.33,3.65a2.12,2.12,0,0,0,2.14,0l6.33-3.65h1.46a.6.6,0,0,0,.52-.3A.59.59,0,0,0,23.38,19.39ZM7,19.09a.91.91,0,0,1-.39-.66L13.62,6.2a.85.85,0,0,1,.76,0l7.06,12.23a.91.91,0,0,1-.39.66ZM21,10a.94.94,0,0,1,.47.82v5.24l-5-8.68Zm-14.43.82A.94.94,0,0,1,7,10l4.54-2.62-5,8.68ZM14.47,22.9a.93.93,0,0,1-.94,0L9,20.29H19Z"/></g></svg>