<svg id="图层_1" data-name="图层 1" xmlns="http://www.w3.org/2000/svg" xmlns:xlink="http://www.w3.org/1999/xlink" viewBox="0 0 28 28"><defs><style>.cls-1{fill:none;}.cls-2{clip-path:url(#clip-path);}.cls-3{fill:#205ac8;}</style><clipPath id="clip-path"><rect class="cls-1" width="28" height="28"/></clipPath></defs><title>原子能力-2</title><g class="cls-2"><path class="cls-3" d="M19.9,11.42a3,3,0,1,0-2.8-2.1l-4.3,2.36a4.26,4.26,0,1,0-.32,5.47l3,2.08a2.54,2.54,0,0,0-.15.83,2.41,2.41,0,1,0,2.41-2.41,2.35,2.35,0,0,0-1.57.6l-3-2.09a4.19,4.19,0,0,0,.49-1.94,4.38,4.38,0,0,0-.28-1.49l4.3-2.35A2.92,2.92,0,0,0,19.9,11.42Zm-2.14,7.43a1.21,1.21,0,0,1,0,2.42,1.21,1.21,0,0,1,0-2.42ZM9.41,17.28a3.06,3.06,0,1,1,3.05-3.06A3.06,3.06,0,0,1,9.41,17.28ZM19.9,6.73a1.75,1.75,0,1,1-1.74,1.74A1.74,1.74,0,0,1,19.9,6.73Z"/></g></svg>