<svg id="图层_1" data-name="图层 1" xmlns="http://www.w3.org/2000/svg" xmlns:xlink="http://www.w3.org/1999/xlink" viewBox="0 0 28 28"><defs><style>.cls-1{fill:none;}.cls-2{clip-path:url(#clip-path);}.cls-3{fill:#9597a0;}</style><clipPath id="clip-path"><rect class="cls-1" width="28" height="28"/></clipPath></defs><title>数字人-1</title><g class="cls-2"><path class="cls-3" d="M17.26,5.32H10.74A4.06,4.06,0,0,0,6.68,9.38v9.24a4.06,4.06,0,0,0,4.06,4.06h6.52a4.06,4.06,0,0,0,4.06-4.06V9.38A4.06,4.06,0,0,0,17.26,5.32Zm2.86,13.3a2.86,2.86,0,0,1-2.86,2.86H10.74a2.86,2.86,0,0,1-2.86-2.86V9.38a2.86,2.86,0,0,1,2.86-2.86h6.52a2.86,2.86,0,0,1,2.86,2.86Z"/><path class="cls-3" d="M4.44,11.37a.6.6,0,0,0-.6.6v4.57a.6.6,0,0,0,1.2,0V12A.6.6,0,0,0,4.44,11.37Z"/><path class="cls-3" d="M11.55,13.47v-2a.6.6,0,1,0-1.2,0v2a.6.6,0,0,0,1.2,0Z"/><path class="cls-3" d="M17.05,10.86a.6.6,0,0,0-.6.6v2a.6.6,0,0,0,1.2,0v-2A.6.6,0,0,0,17.05,10.86Z"/><path class="cls-3" d="M23.56,11.37a.6.6,0,0,0-.6.6v4.57a.6.6,0,1,0,1.2,0V12A.6.6,0,0,0,23.56,11.37Z"/><path class="cls-3" d="M15.66,16a2.42,2.42,0,0,1-3.32,0,.59.59,0,0,0-.85,0,.61.61,0,0,0,0,.85,3.57,3.57,0,0,0,5,0,.61.61,0,0,0,0-.85A.59.59,0,0,0,15.66,16Z"/></g></svg>