<svg id="图层_1" data-name="图层 1" xmlns="http://www.w3.org/2000/svg" xmlns:xlink="http://www.w3.org/1999/xlink" viewBox="0 0 28 28"><defs><style>.cls-1{fill:none;}.cls-2{clip-path:url(#clip-path);}.cls-3{fill:#205ac8;}</style><clipPath id="clip-path"><rect class="cls-1" width="28" height="28"/></clipPath></defs><title>文本-2</title><g class="cls-2"><path class="cls-3" d="M13.51,9.47l-2.7,6.8h1.13l.76-1.93h2.6l.76,1.93h1.13l-2.7-6.8Zm-.39,3.82L14,11.08l.88,2.21Z"/><path class="cls-3" d="M19.05,5.48H9A3.83,3.83,0,0,0,5.13,9.31v7.24A3.82,3.82,0,0,0,9,20.37v1.15a1,1,0,0,0,1,1,1,1,0,0,0,.47-.12l3.76-2h4.86a3.82,3.82,0,0,0,3.82-3.82V9.31A3.83,3.83,0,0,0,19.05,5.48Zm2.62,11.07a2.62,2.62,0,0,1-2.62,2.62H13.89l-.26.15-3.48,1.86v-2H9a2.62,2.62,0,0,1-2.62-2.62V9.31A2.62,2.62,0,0,1,9,6.69h10.1a2.62,2.62,0,0,1,2.62,2.62Z"/></g></svg>