<svg id="图层_1" data-name="图层 1" xmlns="http://www.w3.org/2000/svg" xmlns:xlink="http://www.w3.org/1999/xlink" viewBox="0 0 28 28"><defs><style>.cls-1{fill:none;}.cls-2{clip-path:url(#clip-path);}.cls-3{fill:#9597a0;}</style><clipPath id="clip-path"><rect class="cls-1" width="28" height="28"/></clipPath></defs><title>语音-1</title><g class="cls-2"><path class="cls-3" d="M14,23.91a9.9,9.9,0,0,1-9.84-8.76.58.58,0,0,1,.15-.47.57.57,0,0,1,.44-.2H8.89l2.75-5.35a.61.61,0,0,1,.57-.33.64.64,0,0,1,.53.39L16,17.71l1.73-4a.6.6,0,0,1,.55-.36h4.38c0-.26-.05-.51-.09-.76A8.71,8.71,0,0,0,5.65,11.43a.6.6,0,0,1-1.15-.36,9.91,9.91,0,0,1,19.26,1.38A10,10,0,0,1,23.88,14a.6.6,0,0,1-.6.6H18.67l-2.16,4.93a.62.62,0,0,1-.57.36.61.61,0,0,1-.54-.39l-3.31-8.63-2.3,4.48a.62.62,0,0,1-.54.33H5.42A8.71,8.71,0,0,0,22.15,17a.59.59,0,0,1,.77-.36.6.6,0,0,1,.36.77A9.94,9.94,0,0,1,14,23.91Z"/></g></svg>